<svg width="280" height="75" viewBox="0 0 280 75" fill="none" xmlns="http://www.w3.org/2000/svg">
<g clip-path="url(#clip0_246_176)">
<mask id="mask0_246_176" style="mask-type:luminance" maskUnits="userSpaceOnUse" x="0" y="0" width="280" height="75">
<path d="M0 0H280V75H0V0Z" fill="white"/>
</mask>
<g mask="url(#mask0_246_176)">
<path fill-rule="evenodd" clip-rule="evenodd" d="M36.5271 43.0543H5.65012V6.87226H0V47.4876H36.5271V43.0543ZM30.3226 21.2392L37.9291 6.87226H31.8077L26.1335 21.2392H30.3226ZM68.1201 45.8734C56.7795 45.8734 47.4365 36.7153 47.4365 25.6826C47.4365 14.6618 56.3408 5.06584 68.5572 5.06584C80.4768 5.06584 89.2346 14.6601 89.2346 25.6826C89.236 36.7153 79.4559 45.8734 68.1201 45.8734ZM68.3138 0C51.9266 0 40.7562 11.6106 40.7562 25.6705C40.7562 40.4693 53.097 50.9111 68.3138 50.9111C83.5296 50.9111 95.8628 40.6182 95.8628 25.6705C95.8628 11.6106 84.5533 0 68.3138 0ZM127.884 25.65H109.017V11.682H128.545C133.038 11.682 135.567 13.7907 136.478 16.4679C137.08 18.307 136.693 20.7178 135.7 22.3573C134.067 25.0751 130.967 25.65 127.884 25.65ZM132.723 30.5087C141.979 28.0248 142.881 21.0959 142.837 18.6258C142.283 11.3694 137.421 6.87226 128.675 6.87226H103.208V47.4876H109.015V30.4536H125.593L137.79 47.4876H145.107C145.11 47.4876 136.336 36.0228 132.723 30.5087ZM206.133 31.8922L215.814 12.4893L225.615 31.8922H206.133ZM211.877 6.87226L191.332 47.4876H198.275L203.534 36.9758H228.176L233.479 47.4876H240.352L219.789 6.87226H211.877ZM280 43.0543H249.123V6.87226H243.473V47.4876H280V43.0543ZM181.571 0.314294H171.107L166.213 5.83596L181.571 0.314294ZM181.01 28.8588V24.3678H158.528V11.2963H188.463V6.87226H152.328V47.4876H188.463V43.0543H158.528V28.8588H181.01ZM162.253 74.4105H165.152V62.8149H162.253V74.4105ZM162.236 61.0979H165.133V58.1866H162.236V61.0979ZM184.382 65.7603L178.158 64.6956C176.884 64.4721 175.578 64.018 175.578 62.639C175.578 60.179 178.703 59.7949 180.556 59.7949C183.016 59.7949 185.809 60.5858 185.958 63.0934H188.722C188.6 61.3078 187.84 57.9187 180.222 57.9187C174.941 57.9187 172.722 60.4024 172.722 62.9322C172.722 65.7586 175.941 66.5034 177.368 66.7504L181.831 67.5219C185.412 68.1531 186.476 68.6967 186.476 70.3897C186.476 72.7172 182.894 73.1238 180.767 73.1238C177.974 73.1238 174.757 72.2659 174.757 69.3281H171.994C171.994 70.8441 172.358 72.1992 174.21 73.4409C175.181 74.0945 176.761 75 180.797 75C184.531 75 189.328 73.9384 189.328 70.0965C189.33 67.5234 187.203 66.2577 184.382 65.7603ZM116.877 67.8346L120.885 60.6941H120.955L124.649 67.8346H116.877ZM119.143 58.2777L109.731 74.5014H113.218L115.832 69.778H125.87L128.344 74.5014H132.04L122.977 58.2777H119.143ZM140.547 65.7783H146.625C149.363 65.7783 151.221 65.0543 151.221 62.8638C151.221 60.8075 149.269 60.1508 146.751 60.1508H140.547V65.7783ZM155.08 74.3838H151.633L147.023 67.8016C146.965 67.7169 146.853 67.6736 146.737 67.6528H146.888C146.84 67.6441 146.789 67.641 146.737 67.6528H140.547V74.4997H137.493V58.276H147.662C151.848 58.276 154.367 60.2192 154.367 62.8385C154.367 64.706 153.134 66.7712 149.933 67.4311L155.08 74.3838ZM101.177 65.7783H95.1012V60.1508H101.303C103.822 60.1508 105.773 60.8075 105.773 62.8638C105.773 65.0543 103.915 65.7783 101.177 65.7783ZM102.215 58.2777H92.0472V74.5014H95.1012V67.6545H102.215C107.126 67.6545 108.921 65.1007 108.921 62.8416C108.921 60.2209 106.403 58.2777 102.215 58.2777Z" fill="black"/>
</g>
</g>
<defs>
<clipPath id="clip0_246_176">
<rect width="280" height="75" fill="white"/>
</clipPath>
</defs>
</svg>
