<svg width="280" height="67" viewBox="0 0 280 67" fill="none" xmlns="http://www.w3.org/2000/svg">
<g clip-path="url(#clip0_246_191)">
<path fill-rule="evenodd" clip-rule="evenodd" d="M17.9337 15.1998L12.1446 21.0762C17.5946 27.3636 23.2495 33.5116 28.6959 39.8696L34.2167 46.7001V47.0423C32.8496 46.9753 31.624 46.7743 30.4691 46.7743C29.1728 46.7743 27.8837 46.9753 26.6544 47.0423C25.1532 44.8572 23.6575 42.7988 21.9532 40.8219L7.10617 23.3971C6.76531 23.1256 5.94944 22.9156 5.94944 23.1962V47.0423C4.86161 46.9753 3.9152 46.7743 2.96879 46.7743C1.94986 46.7743 0.934552 46.9753 -0.0136719 47.0423V0.316789C0.934552 0.385583 1.94986 0.575681 2.96879 0.575681C3.9152 0.575681 4.86161 0.385583 5.94944 0.316789V21.4148C6.0129 21.8257 6.96837 21.5524 7.65189 21.0038C8.87932 20.0497 10.308 18.6178 11.2635 17.6583L28.0179 0.31498C28.9026 0.383774 29.791 0.573872 30.7429 0.573872C31.5605 0.573872 32.4453 0.383774 33.3954 0.31498L17.9337 15.1998ZM45.2327 25.7651H53.7577C55.4112 25.7651 57.0049 25.546 58.6529 25.4935C58.5985 25.9316 58.4589 26.4277 58.4589 26.9255C58.4589 27.3636 58.5985 27.8597 58.6529 28.4679C57.0049 28.4154 55.4112 28.1928 53.7577 28.1928H45.2327V44.3267C48.5905 44.4372 51.8884 44.2163 55.19 44.1004C56.886 44.0483 58.5766 43.882 60.2502 43.6026C60.194 44.2181 60.1034 44.7123 60.1034 45.2609C60.1034 45.813 60.194 46.3634 60.2502 46.9155H40.3828V9.30887H59.9184C59.8586 9.91353 59.7843 10.4114 59.7843 10.9654C59.7843 11.5157 59.8586 12.0642 59.9184 12.6182C58.2667 12.2869 56.6187 12.1258 54.9688 12.0117L49.4644 11.8995H45.2327V25.7651ZM72.3632 11.36C74.673 11.246 78.4151 11.0812 80.4494 11.4125C84.5759 12.0787 86.505 14.5589 86.505 18.377C86.505 22.6838 83.4754 25.441 79.4576 26.272C76.6529 26.8241 73.1319 26.6051 72.3614 26.5508L72.3632 11.36ZM67.5133 47.1038C68.2874 47.0513 69.1106 46.9137 69.9373 46.9137C70.7097 46.9137 71.4802 47.0513 72.3632 47.1038V28.6526H74.4518L78.8539 33.8465L85.3482 42.3082C86.5257 43.8906 87.6819 45.4887 88.8166 47.102C89.8156 47.0495 90.9179 46.9119 91.9659 46.9119C93.0138 46.9119 94.0019 47.0495 95.1604 47.102L94.1089 45.7297L91.4691 42.6358L80.1194 28.2127C85.6764 27.2115 91.4147 24.1176 91.4147 17.7071C91.4147 12.1276 87.6617 9.31249 79.1839 9.31249H67.5115L67.5133 47.1038ZM120.324 29.8311H108.207L114.21 15.694L120.324 29.8311ZM116.194 8.47067H114.93L97.7567 47.102C98.3605 47.0495 98.966 46.9119 99.6822 46.9119C100.342 46.9119 100.948 47.0495 101.716 47.102C103.258 41.9081 105.239 37.0291 107.163 32.1484H121.147C123.353 37.1939 125.33 42.52 126.927 47.102C127.859 47.0495 128.792 46.9119 129.84 46.9119C130.776 46.9119 131.657 47.0495 132.698 47.102L116.194 8.47067ZM138.021 39.6216C140.16 43.1536 142.628 45.3604 146.908 45.3604C151.359 45.3604 154.54 41.6619 154.54 37.3025C154.54 27.0341 137.368 31.56 137.368 19.0866C137.368 11.9647 142.956 8.47429 149.543 8.47429C152.181 8.47429 155.364 9.30887 157.401 11.1355C156.742 12.5711 156.356 14.1154 155.917 15.6614H155.364C154.21 12.6816 151.795 10.8567 148.558 10.8567C144.769 10.8567 141.64 13.3985 141.64 17.3179C141.64 27.4722 158.945 23.3917 158.945 35.15C158.945 43.045 152.837 47.7483 145.373 47.7483C142.682 47.7483 138.298 46.5806 136.427 44.5385C136.977 42.9364 137.256 41.2781 137.472 39.6234L138.021 39.6216ZM180.379 47.2161C179.498 47.1599 178.729 47.0567 177.953 47.0567C177.128 47.0567 176.3 47.1599 175.531 47.2161V11.9629C169.976 11.9629 166.618 12.296 163.483 12.6255C163.536 12.0733 163.65 11.5229 163.65 10.9654C163.65 10.4186 163.538 9.92258 163.483 9.3161H191.876C191.819 9.92258 191.642 10.4186 191.642 10.9654C191.642 11.5229 191.819 12.0733 191.876 12.6255C188.06 12.1738 184.22 11.9526 180.377 11.9629V47.2161H180.379ZM213.786 29.8311H201.668L207.667 15.694L213.786 29.8311ZM209.658 8.47067H208.387L191.219 47.102C191.825 47.0495 192.43 46.9119 193.143 46.9119C193.805 46.9119 194.41 47.0495 195.179 47.102C196.72 41.9081 198.698 37.0291 200.625 32.1484H214.609C216.809 37.1939 218.799 42.52 220.389 47.102C221.325 47.0495 222.255 46.9119 223.303 46.9119C224.239 46.9119 225.12 47.0495 226.164 47.102L209.658 8.47067ZM231.427 39.6216C233.567 43.1536 236.031 45.3604 240.315 45.3604C244.766 45.3604 247.946 41.6619 247.946 37.3025C247.946 27.0341 230.767 31.56 230.767 19.0866C230.767 11.9647 236.362 8.47429 242.946 8.47429C245.587 8.47429 248.771 9.30887 250.807 11.1355C250.145 12.5711 249.759 14.1154 249.324 15.6614H248.771C247.616 12.6816 245.201 10.8567 241.961 10.8567C238.172 10.8567 235.046 13.3985 235.046 17.3179C235.046 27.4722 252.344 23.3917 252.344 35.15C252.344 43.045 246.247 47.7483 238.776 47.7483C236.089 47.7483 231.701 46.5806 229.834 44.5385C230.379 42.9364 230.659 41.2781 230.878 39.6234L231.427 39.6216ZM264.938 25.7651H273.465C275.114 25.7651 276.708 25.546 278.362 25.4935C278.309 25.9316 278.168 26.4277 278.168 26.9255C278.168 27.3636 278.309 27.8597 278.362 28.4679C276.708 28.4154 275.114 28.1928 273.465 28.1928H264.938V44.3267C268.296 44.4372 271.599 44.2163 274.895 44.1004C276.592 44.0483 278.284 43.882 279.959 43.6026C279.903 44.2181 279.814 44.7123 279.814 45.2609C279.814 45.813 279.903 46.3634 279.959 46.9155H260.093V9.30887H279.625C279.573 9.91353 279.495 10.4114 279.495 10.9654C279.495 11.5157 279.573 12.0642 279.625 12.6182C277.972 12.2869 276.329 12.1258 274.678 12.0117L269.171 11.8995H264.936L264.938 25.7651ZM46.9914 5.93978L53.212 -0.0126953H57.2297L48.741 5.93978H46.9914ZM84.5994 55.1853C85.4615 55.1421 86.3253 55.1482 87.1867 55.2034C88.6117 55.3301 89.2209 56.2987 89.2209 57.5261C89.2209 59.121 88.1784 60.2561 86.3799 60.4317C85.7883 60.4881 85.1928 60.4881 84.6013 60.4317L84.5994 55.1853ZM84.5994 61.1414C85.0509 61.1414 86.2167 61.2681 87.0271 61.1034C89.5617 60.6019 90.8726 59.608 90.8726 57.4374C90.8726 55.2631 89.7231 54.4955 86.233 54.4955H83.0166V66.7517C83.2668 66.73 83.5406 66.6847 83.8071 66.6847C84.061 66.6847 84.313 66.73 84.6013 66.7517L84.5994 61.1414ZM116.721 61.1613H112.78L114.73 56.5865L116.721 61.1613ZM115.374 54.2602H114.961L109.364 66.7481C109.561 66.7263 109.755 66.6811 109.993 66.6811C110.207 66.6811 110.406 66.7263 110.66 66.7481C111.162 65.068 111.804 63.484 112.439 61.8999H116.99C117.709 63.5365 118.357 65.2654 118.879 66.7481C119.18 66.7263 119.484 66.6811 119.827 66.6811C120.133 66.6811 120.423 66.7263 120.762 66.7481L115.374 54.2602ZM145.114 55.1654C145.868 55.1292 147.093 55.0766 147.759 55.1835C149.108 55.3989 149.739 56.2045 149.739 57.4392C149.739 58.8332 148.747 59.7239 147.436 59.9918C146.519 60.1692 145.367 60.1022 145.114 60.0841V55.1654ZM143.534 66.7481C143.786 66.7263 144.055 66.6811 144.325 66.6811C144.58 66.6811 144.831 66.7263 145.115 66.7481V60.7576H145.799L147.237 62.4484L149.365 65.1966C149.74 65.7017 150.094 66.2013 150.487 66.7481C150.81 66.7263 151.164 66.6811 151.501 66.6811C151.847 66.6811 152.166 66.7263 152.545 66.7481L152.204 66.3063L151.34 65.3016L147.654 60.6091C149.47 60.2905 151.321 59.293 151.321 57.2183C151.321 55.4116 150.11 54.4991 147.345 54.4991H143.534V66.7481ZM176.347 54.4937C176.599 54.5118 176.871 54.5607 177.137 54.5607C177.393 54.5607 177.64 54.5118 177.928 54.4937V66.7499C177.641 66.7281 177.393 66.6829 177.137 66.6829C176.873 66.6829 176.599 66.7281 176.347 66.7499V54.4937ZM203.017 64.3186C203.718 65.4645 204.533 66.1778 205.93 66.1778C207.383 66.1778 208.427 64.9793 208.427 63.5745C208.427 60.2543 202.797 61.7189 202.797 57.6872C202.797 55.3862 204.643 54.2566 206.792 54.2566C207.653 54.2566 208.701 54.5245 209.366 55.1129C209.15 55.5836 209.023 56.0778 208.88 56.5811H208.699C208.316 55.6198 207.53 55.026 206.469 55.026C205.232 55.026 204.206 55.8497 204.206 57.1151C204.206 60.3955 209.872 59.0776 209.872 62.8793C209.872 65.4319 207.87 66.9454 205.428 66.9454C204.547 66.9454 203.106 66.5706 202.493 65.9099C202.674 65.3939 202.761 64.8562 202.834 64.3186H203.017Z" fill="black"/>
</g>
<defs>
<clipPath id="clip0_246_191">
<rect width="280" height="67" fill="white"/>
</clipPath>
</defs>
</svg>
