<svg width="280" height="59" viewBox="0 0 280 59" fill="none" xmlns="http://www.w3.org/2000/svg">
<g clip-path="url(#clip0_246_168)">
<path d="M53.7066 13.3995V31.6999H50.2381C50.2381 31.6999 50.211 14.7962 50.2381 14.745C50.0803 11.4629 47.044 8.67579 42.8356 8.87922C32.478 9.37738 32.3329 16.7248 32.3329 16.7248V31.6999H28.8628V0.0117188H32.3345V10.2792C32.3345 10.2792 35.2273 5.95276 43.0604 5.64041C50.0436 5.36009 53.4738 10.2215 53.7066 13.3995ZM56.7716 6.50376H60.2353V24.9324C60.2353 25.4321 62.0325 29.5199 68.3985 29.3357C75.1042 29.1435 78.0528 24.1042 78.1661 22.0555V6.50376H81.6265V31.6935H78.1661V28.1904C78.1661 28.1904 74.9177 32.0763 68.0908 32.5248C61.2607 32.9733 56.9965 28.6613 56.7732 24.62L56.7716 6.50376ZM100.556 6.50376H104.014V24.9324C104.014 25.4321 105.812 29.5199 112.178 29.3357C118.883 29.1435 121.832 24.1042 121.945 22.0555V6.50376H125.407V31.6935H121.945V28.1904C121.945 28.1904 118.698 32.0763 111.868 32.5248C105.038 32.9733 100.774 28.6613 100.556 24.62V6.50376ZM203.881 6.50376H207.341V24.9324C207.341 25.4321 209.139 29.5199 215.505 29.3357C222.21 29.1435 225.157 24.1042 225.272 22.0555V6.50376H228.729V31.6935H225.272V28.1904C225.272 28.1904 222.024 32.0763 215.194 32.5248C208.363 32.9733 204.102 28.6613 203.881 24.62V6.50376ZM152.457 17.0532H131.816C131.816 17.0532 132.536 8.75269 142.015 8.46597C150.607 8.20648 152.457 16.233 152.457 17.0532ZM142.015 5.36009C131.33 5.22394 128.2 14.8315 127.981 17.2358C127.453 23.0775 130.273 32.0443 142.015 32.4271C152.769 32.7779 155.547 23.1784 155.547 23.1784H151.838C150.548 26.8865 146.347 29.8114 142.015 29.5087C131.601 28.7911 131.631 19.7986 131.631 19.7986H156.289C156.718 14.5191 153.224 5.50265 142.015 5.36009ZM162.608 16.7232V31.6919H159.148V6.50376H162.608V9.51834C162.608 9.51834 166.324 5.34246 172.32 5.52667C178.313 5.70927 179.801 9.1307 180.817 10.1943C180.817 10.1943 184.51 5.70928 191.149 5.56512C198.21 5.41455 200.639 10.9984 200.639 12.5217V31.6935H197.178V14.3205C197.178 13.4555 196.587 8.63415 190.803 8.5909C184.735 8.54445 182.116 13.4427 181.783 15.2543V31.6919H178.313V15.0557C178.412 13.8336 177.136 8.4147 171.523 8.5925C164.093 8.82956 162.554 14.4214 162.608 16.7232ZM235.655 9.46227V6.50376H232.195V31.6935H235.655V14.8299C235.655 14.8299 236.502 8.59731 243.775 8.51562C250.298 8.44354 250.385 13.9665 250.491 14.2484H253.847C253.847 14.2484 254.099 5.36329 243.775 5.67724C241.552 5.74452 236.974 7.04036 235.655 9.46227ZM276.672 17.7611V22.6883C276.672 22.6883 275.368 29.0249 266.535 29.2716C258.986 29.4798 258.322 25.9047 258.322 24.6633C258.322 23.5324 258.3 20.4474 266.603 20.3256C272.48 20.2423 275.287 18.6726 276.672 17.7611ZM276.672 28.0206V31.6919H280.133V14.0498C280.024 10.0774 277.972 5.59075 268.114 5.62439C256.365 5.66283 255.81 12.7347 255.549 14.2612H259.075C259.075 14.2612 258.875 8.34902 268.147 8.55405C276.947 8.74947 276.551 12.8693 276.545 13.0086C276.516 13.5661 276.915 16.8225 266.771 17.1941C256.624 17.5625 254.318 21.5093 254.441 24.5832C254.571 27.8636 257.33 32.7139 266.691 32.2397C273.937 31.8729 275.754 28.7494 276.672 28.0206ZM3.45132 23.1736H-0.123988C-0.123988 23.1736 -0.922932 32.488 13.6016 32.4255C26.458 32.3743 26.6988 24.9227 26.6988 24.3365C26.6988 20.9183 24.1298 17.8556 13.9412 17.0291C3.75113 16.1994 4.28694 13.5132 4.28694 13.1288C4.28694 11.0545 7.04736 8.55887 13.0657 8.69342C18.8242 8.82476 21.5894 11.2483 21.7887 14.2484H25.2827C25.2827 14.2484 25.8728 5.89029 12.9525 5.73011C1.55204 5.58915 0.773827 12.046 0.727581 13.0647C0.663793 14.4999 0.981138 19.6993 13.1104 20.3064C16.8516 20.4922 22.9768 21.064 22.9608 24.4839C22.9513 26.9394 20.1574 29.427 13.8408 29.5519C7.00431 29.6881 3.87232 27.0355 3.45132 23.1736ZM164.844 56.1705H163.246V48.0045C163.246 47.7851 162.514 45.9719 159.692 46.052C156.718 46.1401 155.415 48.3681 155.362 49.2796V56.1705H153.767V45.0156H155.362V46.5613C155.362 46.5613 156.801 44.841 159.832 44.6408C162.856 44.4406 164.747 46.3531 164.844 48.1439V56.1705ZM177.15 49.7137H168.01C168.01 49.7137 168.327 46.0375 172.529 45.9094C176.334 45.7973 177.157 49.3516 177.15 49.7137ZM172.527 44.5335C167.793 44.4742 166.407 48.7301 166.308 49.7969C166.077 52.387 167.324 56.3579 172.527 56.5261C177.292 56.683 178.52 52.4255 178.52 52.4255H176.879C176.31 54.0721 174.447 55.368 172.527 55.2318C167.911 54.9131 167.924 50.9294 167.924 50.9294H178.854C179.04 48.594 177.493 44.5991 172.527 44.5335ZM122.082 46.3066V45.0092H120.494V56.1769H122.082V48.6869C122.082 48.6869 122.456 45.9286 125.674 45.8918C128.565 45.8581 128.603 48.3025 128.649 48.4322H130.136C130.136 48.4322 130.25 44.4934 125.674 44.6328C124.688 44.6616 122.663 45.2366 122.082 46.3066ZM227.72 46.3066V45.0092H226.135V56.1769H227.72V48.6869C227.72 48.6869 228.093 45.9286 231.311 45.8918C234.201 45.8581 234.242 48.3025 234.288 48.4322H235.775C235.775 48.4322 235.89 44.4934 231.311 44.6328C230.329 44.6616 228.299 45.2366 227.72 46.3066ZM117.423 49.9892V52.1724C117.423 52.1724 116.901 54.9771 112.985 55.0893C109.642 55.179 109.349 53.5964 109.349 53.0486C109.349 52.5472 109.339 51.1777 113.017 51.1248C115.619 51.0912 116.809 50.396 117.423 49.9892ZM117.423 54.5366V56.1785H119.011V48.3441C118.963 46.587 118.053 44.5927 113.686 44.6119C108.481 44.6296 108.234 47.7611 108.119 48.4402H109.679C109.679 48.4402 109.594 45.8165 113.699 45.9062C117.6 45.9975 117.424 47.8203 117.42 47.8844C117.41 48.1311 117.585 49.5727 113.09 49.7361C108.593 49.9011 107.574 51.6438 107.63 53.0085C107.684 54.4614 108.909 56.6126 113.052 56.4043C116.267 56.2409 117.019 54.857 117.423 54.5366ZM135.491 52.3822H133.907C133.907 52.3822 133.555 56.5084 139.988 56.4828C145.682 56.4588 145.791 53.1559 145.791 52.8996C145.791 51.3859 144.654 50.0276 140.139 49.6624C135.626 49.2924 135.861 48.1023 135.861 47.9341C135.861 47.0114 137.085 45.9062 139.75 45.9671C142.303 46.0263 143.526 47.1011 143.617 48.4274H145.166C145.166 48.4274 145.427 44.7257 139.702 44.6552C134.652 44.5911 134.306 47.4551 134.285 47.9036C134.256 48.5411 134.398 50.8445 139.771 51.1104C141.428 51.1985 144.143 51.4484 144.137 52.9653C144.131 54.0513 142.895 55.1517 140.094 55.2062C137.063 55.267 135.68 54.0913 135.491 52.3822ZM33.8845 45.0108H32.3313V46.2586H33.8845V54.1378C33.8845 54.1378 33.674 56.9746 37.8027 56.1705V55.0028C37.8027 55.0028 35.5526 55.2831 35.4856 54.362C35.4218 53.4394 35.4856 46.2586 35.4856 46.2586H37.8441V45.0108H35.4856V42.1372H33.8861V45.0108H33.8845ZM49.0517 50.5914C49.0636 51.2253 48.9496 51.8552 48.7163 52.4443C48.4831 53.0335 48.1354 53.57 47.6934 54.0226C47.2514 54.4752 46.7241 54.8348 46.1422 55.0804C45.5603 55.326 44.9355 55.4526 44.3043 55.453C43.6731 55.4533 43.0482 55.3273 42.4661 55.0823C41.8839 54.8372 41.3562 54.4782 40.9138 54.026C40.4714 53.5739 40.1231 53.0377 39.8893 52.4488C39.6555 51.8599 39.5408 51.2301 39.5521 50.5962C39.5742 49.346 40.0841 48.1545 40.9719 47.278C41.8598 46.4015 43.0547 45.9101 44.2995 45.9095C45.5444 45.9089 46.7398 46.3991 47.6285 47.2747C48.5172 48.1502 49.0283 49.3412 49.0517 50.5914ZM44.3027 44.5126C40.8039 44.5126 37.9669 47.2357 37.9669 50.5962C37.9669 53.9536 40.8039 56.675 44.3027 56.675C47.8014 56.675 50.6368 53.9536 50.6368 50.5962C50.6368 47.2357 47.8014 44.5126 44.3027 44.5126ZM85.205 50.5914C85.2169 51.2253 85.1029 51.8552 84.8697 52.4443C84.6365 53.0335 84.2887 53.57 83.8468 54.0226C83.4048 54.4752 82.8774 54.8348 82.2955 55.0804C81.7137 55.326 81.0889 55.4526 80.4577 55.453C79.8265 55.4533 79.2016 55.3273 78.6194 55.0823C78.0373 54.8372 77.5096 54.4782 77.0672 54.026C76.6247 53.5739 76.2764 53.0377 76.0426 52.4488C75.8088 51.8599 75.6942 51.2301 75.7054 50.5962C75.7276 49.346 76.2375 48.1545 77.1253 47.278C78.0131 46.4015 79.208 45.9101 80.4529 45.9095C81.6978 45.9089 82.8931 46.3991 83.7819 47.2747C84.6706 48.1502 85.1816 49.3412 85.205 50.5914ZM80.456 44.5126C76.9573 44.5126 74.1219 47.2357 74.1219 50.5962C74.1219 53.9536 76.9573 56.675 80.456 56.675C83.9548 56.675 86.7902 53.9536 86.7902 50.5962C86.7902 47.2357 83.9548 44.5126 80.456 44.5126ZM223.347 50.5914C223.347 51.8574 222.847 53.0715 221.955 53.9667C221.064 54.8619 219.855 55.3648 218.595 55.3648C217.335 55.3648 216.126 54.8619 215.235 53.9667C214.344 53.0715 213.843 51.8574 213.843 50.5914C213.843 49.3255 214.344 48.1113 215.235 47.2162C216.126 46.321 217.335 45.8181 218.595 45.8181C219.855 45.8181 221.064 46.321 221.955 47.2162C222.847 48.1113 223.347 49.3255 223.347 50.5914ZM218.593 44.5126C215.096 44.5126 212.261 47.2357 212.261 50.5962C212.261 53.9536 215.095 56.675 218.593 56.675C222.094 56.675 224.929 53.9536 224.929 50.5962C224.929 47.2357 222.094 44.5126 218.593 44.5126ZM51.8855 42.1372V56.1689H53.4754V50.2615L60.744 56.1689H62.916L55.6824 50.183L62.3148 45.0108H60.2353L53.4754 49.9731V42.1372H51.8855ZM236.84 42.1372V56.1689H238.431V50.2615L245.697 56.1689H247.869L240.635 50.183L247.271 45.0108H245.19L238.431 49.9731V42.1372H236.84ZM62.8474 45.0108H64.4963L68.9328 54.4373L73.2751 45.0108H74.9065L68.3985 59.1162H66.7863L68.1211 56.1689L62.8474 45.0108ZM200.771 45.0108H202.42L206.858 54.4373L211.199 45.0108H212.832L206.322 59.1162H204.712L206.045 56.1689L200.771 45.0108ZM101.316 44.5014C104.329 44.6039 106.938 47.2725 106.966 50.1942C106.993 53.2488 105.167 56.6254 101.316 56.6398C97.9259 56.6542 96.6295 54.7689 96.6295 54.7689V59.1097H95.0284V45.0092H96.6295V46.305C97.0361 45.9302 98.5495 44.4053 101.316 44.5014ZM101.071 45.8918C98.6005 45.8918 96.6008 47.9869 96.6008 50.5706C96.6008 53.1527 98.6005 55.2494 101.071 55.2494C103.541 55.2494 105.544 53.1527 105.544 50.5706C105.544 47.9869 103.541 45.8918 101.071 45.8918ZM131.156 45.0108H132.756V56.1689H131.156V45.0108ZM131.156 42.1372H132.756V43.6749H131.156V42.1372ZM178.592 45.0108H180.082L183.663 54.0465H183.804L187.133 45.0108H188.68L192.035 54.0465H192.179L195.67 45.0108H197.177L192.892 56.1689H191.412L187.993 46.8144H187.865L184.419 56.1689H183.04L178.592 45.0108Z" fill="black"/>
</g>
<defs>
<clipPath id="clip0_246_168">
<rect width="280" height="59" fill="white"/>
</clipPath>
</defs>
</svg>
