<svg width="280" height="49" viewBox="0 0 280 49" fill="none" xmlns="http://www.w3.org/2000/svg">
<g clip-path="url(#clip0_246_165)">
<path fill-rule="evenodd" clip-rule="evenodd" d="M166.918 24.8831H172.901L170.668 16.671L166.918 24.8831ZM157.615 38.7768C157.908 38.4819 158.556 37.563 158.875 37.0275L172.747 10.1129L179.079 36.5925C179.079 36.5925 179.833 38.5269 180.198 38.7768H176.885C176.654 38.0191 173.303 26.2886 173.303 26.2886H166.228L160.474 38.7768H157.615ZM185.137 31.1014C185.174 40.5274 196.526 40.8315 196.547 30.5686L196.565 11.6744L199.724 11.677C198.934 12.3011 198.645 15.1293 198.491 17.4524C198.437 18.2484 197.875 30.0331 197.807 31.19C196.952 43.8368 182.753 42.0069 182.096 32.2755C182.025 31.2112 181.787 14.9799 181.71 14.4087C181.634 13.0799 181.325 11.9758 180.752 11.6744H185.099L185.137 31.1014ZM202.572 11.7498C226.505 8.28825 220.564 24.5222 212.267 26.081C212.267 26.081 222.31 38.2452 222.695 38.7768L222.407 14.447C222.348 12.4889 221.499 11.6744 221.499 11.6744H235.836V14.447C235.836 14.447 232.797 12.9675 226.084 12.9292L225.812 24.7694H235.836V26.4037H225.812V37.1822C225.812 38.0377 226.541 37.9768 227.082 37.9768C233.627 37.9768 237.706 36.5343 237.706 36.5343L236.547 39.1034C236.547 39.1034 223.965 39.1219 223.1 39.1034C223.502 39.7671 226.852 43.3013 229.044 44.6341C227.966 44.2123 223.464 42.6177 221.81 40.8315C221.277 40.255 209.207 27.6756 208.321 26.6509C220.615 24.427 216.459 10.1896 207.188 12.5867L205.877 38.7768H202.144C202.425 38.3854 202.655 37.5075 202.762 36.5978L203.417 14.6361C203.398 13.0905 203.012 12.2892 202.572 11.7498ZM106.567 38.8178L106.127 13.9578C106.123 13.0706 105.603 12.079 105.084 11.562H109.569L109.283 37.2417C109.239 37.5921 109.724 38.7265 109.936 38.8178C109.882 38.8125 106.567 38.8178 106.567 38.8178ZM112.937 11.562H117.726L135.197 35.3602V11.562H156.405L158.172 3.60105C158.358 2.53404 158.358 1.88618 157.86 1.26078H162.827L152.28 44.9369C152.018 45.9404 152.089 46.817 153.788 46.8408C159.018 46.9136 169.797 45.9814 174.104 44.5217L172.103 47.9793H147.935C148.318 47.4861 148.667 46.5737 149.014 45.3216L155.848 13.979C153.258 13.0336 150.088 12.9754 147.17 12.9781L146.329 36.7075C146.326 37.4216 146.427 38.1324 146.63 38.8178H142.939C143.204 38.1315 143.287 37.563 143.318 36.5872L143.126 12.9701H138.549C137.045 13.0085 137.356 14.3373 137.314 14.9072L136.122 41.0271L116.141 15.752L116.149 38.8178H113.514C113.763 38.4423 114.136 37.2523 114.187 36.3122L114.936 14.1086L112.937 11.562ZM280 11.8278V13.7687C277.343 12.9807 275.48 12.9807 272.507 12.9807L271.62 37.2364C271.584 38.1025 271.672 38.4423 271.852 39.0769C271.852 39.0769 268.323 39.0716 268.323 39.0663C268.52 38.4119 268.634 38.1606 268.694 37.2232L268.532 12.9807H263.549C261.994 12.9807 261.994 14.5647 261.994 15.1346C261.994 15.1346 261.042 40.3317 261.002 41.2823C260.658 40.7865 241.02 16.0112 241.02 16.0112L241.03 39.0769H238.653C238.996 38.3272 239.021 37.563 239.067 36.5661C239.067 36.5661 239.819 15.0513 239.819 14.3651C239.164 13.5071 238.497 12.6586 237.817 11.8198H242.61L260.08 35.618V11.8278H280ZM91.5961 24.7522H97.2953L95.2554 16.9975L91.5961 24.7522ZM90.8893 26.4539L83.6937 41.56C78.8323 51.3892 67.296 50.781 59.5275 43.809L60.7616 39.9337C71.0785 56.4149 88.3596 43.4613 79.1964 31.9939L65.7634 16.2849C56.6096 5.84879 51.0964 16.9024 56.1799 20.9232L63.7236 26.5478C69.2662 30.4337 67.4124 38.7001 60.2409 39.4352C56.9281 39.7763 53.1403 38.3365 50.8702 36.7974L50.2545 38.8852H35.554C35.811 38.4118 36.0947 37.5379 36.0921 36.8702L36.0546 12.7996C36.068 12.358 35.7815 12.3302 35.6102 12.6938L22.6658 40.0844L16.9518 15.2589C16.7618 14.652 16.3736 15.2205 16.3736 15.2205C15.4126 16.5335 11.1857 22.3868 10.4294 23.393C9.86861 24.1348 9.63838 24.6306 9.21676 25.8483C8.99993 26.4579 4.36211 44.8774 4.15599 45.5967C3.96592 46.2511 4.22557 47.5813 4.57759 47.9118H0C0.15794 47.7862 0.903482 46.9268 1.08016 46.2511L4.72617 27.6531C5.53729 23.9893 4.50264 20.2779 4.50264 20.2779C2.2473 7.27148 1.75608 1.65876 0.576884 0.775529H4.3862C4.50265 1.46175 8.8875 21.9492 9.15653 22.9382C8.8875 23.3573 23.7393 0.957992 23.7393 0.957992H27.5887C27.5887 0.957992 25.6626 2.75089 25.3213 3.2097C25.0228 3.59842 20.3944 9.84183 19.8175 10.6232L24.2412 34.1517L33.822 11.4972H49.7539V14.0623C48.0072 13.2028 41.9519 12.157 39.556 12.4651L39.3272 23.8875C39.3392 24.5129 39.3285 24.5632 39.9014 24.5632L49.7753 24.5552V26.1326H39.2094L38.8841 37.1756C38.8841 37.9345 39.4409 38.0112 39.9228 38.0297C44.0533 38.1871 47.951 37.6529 50.8247 36.4114L51.506 33.9428C54.6822 37.7825 57.252 39.1523 60.6063 38.1818C63.8267 37.2523 66.9119 32.9049 60.9864 28.8286L55.2216 24.8012C47.2376 18.8447 53.9875 5.96515 65.3003 12.4109C65.2628 1.19467 79.7211 -4.40351 89.931 4.15904L88.9285 7.84795C79.9125 -6.61158 63.401 5.27893 71.037 15.5987L81.8466 29.5531C84.2719 32.5624 84.6855 34.7348 84.6855 34.7348L97.4091 10.6894L103.739 36.8278C103.966 37.6529 104.427 38.4978 104.76 38.8178H101.123C101.129 38.8178 97.7557 26.4631 97.7557 26.4631L90.8893 26.4539Z" fill="black"/>
</g>
<defs>
<clipPath id="clip0_246_165">
<rect width="280" height="49" fill="white"/>
</clipPath>
</defs>
</svg>
