<svg width="280" height="45" viewBox="0 0 280 45" fill="none" xmlns="http://www.w3.org/2000/svg">
<g clip-path="url(#clip0_246_170)">
<path fill-rule="evenodd" clip-rule="evenodd" d="M23.2472 0.900391H27.7706V26.266H23.3141V10.876L15.4975 26.266H12.2748L4.4529 10.876V26.266H0V0.900391H4.52335L4.71303 1.27299L13.8862 19.3954L23.0575 1.27299L23.2472 0.900391ZM81.5884 1.16499C81.5884 1.16499 75.6199 8.99139 73.7719 11.4106L66.1161 1.16859L65.9138 0.900391H60.0428L60.9154 2.03979L71.5319 15.9178V26.2678H75.9902V15.9178L86.6013 2.03979L87.4756 0.900391H81.7943L81.5884 1.16499ZM129.501 15.4156H144.242V10.948H129.501V5.37699H144.865V0.900391H125.043V26.266H145.044V21.7948H129.501V15.4156ZM174.581 21.7948H160.697V0.900391H156.24V26.266H174.579L174.581 21.7948ZM202.131 21.7948H188.25V0.900391H183.796V26.266H202.131V21.7948ZM211.015 26.266H215.47V0.900391H211.015V26.266ZM244.227 18.2272L230.834 1.15599L230.631 0.900391H226.637V26.266H231.087V8.94279L244.483 26.0104L244.684 26.266H248.683V0.900391H244.227V18.2272ZM279.736 21.7948H264.188V15.4156H278.932V10.948H264.188V5.37699H279.554V0.900391H259.732V26.266H279.736V21.7948ZM49.5654 0.900391L60.713 26.266H55.767L55.5881 25.8556L52.6526 19.1362H42.952C42.289 20.6626 40.0183 25.8556 40.0183 25.8556L39.8359 26.266H34.8916L46.041 0.900391H49.5654ZM47.8023 8.01759L44.8994 14.6596V14.6686H50.7071C50.0008 13.0414 48.6152 9.87159 47.8023 8.01759ZM115.053 18.5728C115.053 20.6212 114.348 22.4878 113.075 23.8306C111.547 25.447 109.301 26.266 106.416 26.266H93.6573V0.900391H106.622C111.456 0.900391 114.341 3.54639 114.341 7.97439C114.341 9.98139 113.673 11.65 112.399 12.8542C114.842 14.656 115.053 17.6278 115.053 18.5728ZM109.885 8.06439C109.885 5.76039 108.862 5.37519 105.795 5.37519H98.1138V10.9462H106.001C109.419 10.9462 109.885 9.48279 109.885 8.06439ZM105.764 15.4138H98.1138V21.793H106.122C110.132 21.793 110.595 19.8814 110.595 18.4486C110.595 15.8566 109.099 15.4138 105.764 15.4138ZM165.946 39.9802L159.271 31.3582H156.238V43.7782H159.082V35.1436L165.76 43.7782H168.788V31.3582H165.946V39.9802ZM176.333 38.4178H183.931V36.3442H176.333V33.5344H184.542V31.3564H173.36V43.7764H184.69V41.6038H176.333V38.4178ZM203.074 40.2646L200.225 31.3564H197.277L194.345 40.2646L191.726 31.3564H188.68L192.723 43.6612L192.765 43.7782H195.727L198.71 34.8484L201.627 43.78H204.546L208.826 31.36H205.786L203.076 40.2664L203.074 40.2646ZM222.085 36.6556L218.183 31.3564H214.69L220.528 38.9344V43.7764H223.503V38.9344L229.313 31.3564H225.929L222.085 36.6556ZM245.43 37.5934C245.43 41.4202 242.39 44.0986 238.042 44.0986C233.695 44.0986 230.659 41.4202 230.659 37.5934C230.659 33.772 233.695 31.0972 238.042 31.0972C242.39 31.0972 245.43 33.7702 245.43 37.5934ZM242.457 37.5934C242.457 34.3318 240.079 33.1708 238.042 33.1708C234.786 33.1708 233.63 35.5522 233.63 37.5934C233.63 39.6346 234.786 42.0178 238.042 42.0178C240.079 42.0178 242.457 40.8604 242.457 37.5934ZM262.302 43.4812L262.667 43.7908H259.293L259.238 43.726C258.803 43.1536 258.803 42.4552 258.803 41.8432C258.803 39.793 258.38 38.8192 255.976 38.8192H252.26V43.7908H249.287V31.369H256.644C259.972 31.369 261.796 32.593 261.796 34.807C261.796 36.2218 261.07 37.282 259.735 37.8328C260.489 38.065 261.543 38.7022 261.543 40.4392C261.543 41.9332 261.823 43.0726 262.302 43.4812ZM256.377 33.4462H252.26V36.8626H256.419C257.513 36.8626 258.821 36.5584 258.821 35.1112C258.821 33.9466 258.088 33.4462 256.375 33.4462H256.377ZM279.689 31.3582H275.885L269.4 36.6646V31.3564H266.43V43.7764H269.4V39.6364L271.36 38.0776L276.25 43.7782H280L273.425 36.373L279.689 31.3582Z" fill="black"/>
</g>
<defs>
<clipPath id="clip0_246_170">
<rect width="280" height="45" fill="white"/>
</clipPath>
</defs>
</svg>
