<svg width="280" height="71" viewBox="0 0 280 71" fill="none" xmlns="http://www.w3.org/2000/svg">
<g clip-path="url(#clip0_246_197)">
<path fill-rule="evenodd" clip-rule="evenodd" d="M280.044 70.9883V54.9297H0.0419922V70.9883H280.044Z" fill="black"/>
<path fill-rule="evenodd" clip-rule="evenodd" d="M7.04653 57.0805H15.9063C18.0503 57.0805 20.6227 57.9418 20.6227 60.5208C20.6227 62.9614 18.0502 63.9644 15.7635 63.9644H9.33168V69.1273H7.04492L7.04653 57.0805ZM9.33168 62.53H14.7637C16.9077 62.53 18.1931 61.9552 18.1931 60.5208C18.1931 59.2313 17.3361 58.5149 15.1922 58.5149H9.33328L9.33168 62.53ZM29.4857 57.0805H37.4885C40.3482 57.0805 43.2062 57.7969 43.2062 60.5208C43.2062 62.0985 42.2048 63.5329 39.204 63.9644L44.0631 69.1273H41.2035L36.3443 63.9644H31.7724V69.1273H29.4857V57.0805ZM31.7724 62.6716H37.2045C39.3484 62.6716 40.9211 62.1001 40.9211 60.5208C40.9211 58.9447 39.3484 58.5149 37.2045 58.5149H31.7724V62.6716ZM59.2151 56.7939C63.6458 56.7939 66.3626 59.3762 66.3626 63.1015C66.3626 66.83 63.6474 69.4122 59.2151 69.4122C54.7844 69.4122 52.0676 66.83 52.0676 63.1015C52.0676 59.3762 54.7844 56.7939 59.2151 56.7939ZM59.2151 68.1211C62.7889 68.1211 64.3615 65.6837 64.3615 63.1031C64.3615 60.5224 62.7889 58.0851 59.2151 58.0851C55.7858 58.0851 54.0687 60.5224 54.0687 63.1031C54.0687 65.6837 55.7858 68.1211 59.2151 68.1211ZM74.5083 57.0805H85.9437V58.5149H76.9379V62.0985H85.3708V63.388H76.9379V69.1273H74.5083V57.0805ZM96.0905 57.0805H108.67V58.5149H98.3789V62.2434H107.24V63.5329H98.3789V67.6928H108.813V69.1273H96.0905V57.0805ZM126.679 58.9447C125.392 58.6582 124.677 58.5133 123.248 58.5133C121.818 58.5133 120.245 58.7999 120.245 60.091C120.245 62.3835 127.821 61.8103 127.821 65.6821C127.821 68.2644 124.963 69.2673 121.389 69.2673C120.102 69.2673 118.815 68.9808 117.673 68.8359L117.958 67.1165C118.815 67.4031 120.39 67.8329 121.673 67.8329C123.103 67.8329 125.104 67.2614 125.104 65.827C125.104 63.1015 117.53 63.9627 117.53 60.2326C117.53 58.0818 119.959 56.934 123.246 56.934C124.389 56.934 125.818 57.0789 126.961 57.3654L126.679 58.9447ZM146.117 58.9447C144.831 58.6582 144.117 58.5133 142.829 58.5133C141.399 58.5133 139.685 58.7999 139.685 60.091C139.685 62.3835 147.402 61.8103 147.402 65.6821C147.402 68.2644 144.403 69.2673 140.829 69.2673C139.685 69.2673 138.4 68.9808 137.255 68.8359L137.541 67.1165C138.4 67.4031 139.829 67.8329 141.116 67.8329C142.689 67.8329 144.689 67.2614 144.689 65.827C144.689 63.1015 136.97 63.9627 136.97 60.2326C136.97 58.0818 139.542 56.934 142.687 56.934C143.973 56.934 145.261 57.0789 146.545 57.3654L146.117 58.9447ZM157.409 57.0805H159.839V69.1273H157.409V57.0805ZM176.705 56.7939C181.137 56.7939 183.851 59.3762 183.851 63.1015C183.851 66.83 181.137 69.4122 176.705 69.4122C172.272 69.4122 169.559 66.83 169.559 63.1015C169.559 59.3762 172.272 56.7939 176.705 56.7939ZM176.705 68.1211C180.137 68.1211 181.851 65.6837 181.851 63.1031C181.851 60.5224 180.137 58.0851 176.705 58.0851C173.131 58.0851 171.558 60.5224 171.558 63.1031C171.558 65.6837 173.131 68.1211 176.705 68.1211ZM192 57.0805H194.285L203.719 66.545H203.863V57.0805H206.007V69.1273H203.719L194.285 59.6628H194.144V69.1273H192V57.0805ZM216.297 57.0805H218.725L228.159 66.545V57.0805H230.303V69.1273H228.015L218.584 59.6628H218.441V69.1273H216.297V57.0805ZM240.596 57.0805H253.174V58.5149H243.026V62.2434H251.744V63.5329H243.026V67.6928H253.315V69.1273H240.596V57.0805ZM262.605 57.0805H264.893V67.6928H273.898V69.1273H262.605V57.0805Z" fill="white"/>
<path fill-rule="evenodd" clip-rule="evenodd" d="M253.746 37.4346H254.746C255.176 37.4346 255.319 37.5795 255.46 37.7244C255.604 37.8661 255.604 38.011 255.604 38.1527C255.604 38.4392 255.46 38.7274 254.746 38.7274H253.746V37.4346ZM253.746 41.1631V39.4438H255.031C255.89 39.4438 256.604 39.0123 256.604 38.151C256.604 37.7228 256.318 37.293 255.89 37.0032C255.604 36.8615 255.32 36.8615 254.89 36.8615H252.888V41.1631H253.746ZM259.892 39.4438L260.606 37.5795L261.32 39.4438H259.892ZM261.32 36.8631H260.176L258.604 41.1647H259.321L259.748 40.1618H261.606L262.036 41.1647H262.895L261.32 36.8631ZM266.608 37.4346H267.752C268.466 37.4346 268.611 37.7244 268.611 38.151C268.611 38.5825 268.181 38.7258 267.752 38.7258H266.608V37.4346ZM269.611 41.1631L268.752 39.2989C268.896 39.1572 269.611 38.8674 269.611 38.151C269.615 37.9626 269.579 37.7754 269.505 37.6022C269.431 37.4291 269.32 37.2741 269.18 37.1481C268.78 36.9525 268.34 36.8544 267.895 36.8615H265.751V41.1631H266.606V39.2989H267.895L268.609 41.1631H269.611ZM272.613 36.8631H273.613V41.1631H272.613V36.8631ZM277.187 39.8752C277.187 40.0169 277.328 40.3034 277.756 40.4467C278.045 40.5916 278.186 40.5916 278.329 40.5916C279.184 40.5916 279.329 40.1602 279.329 40.0169C279.329 39.5854 278.899 39.4454 278.759 39.4454L277.615 39.1588C276.901 39.0139 276.612 38.5841 276.612 38.011C276.612 37.2946 277.326 36.7182 278.329 36.7182C278.759 36.7182 279.329 36.8631 279.615 37.1497C279.9 37.2946 280.045 37.5811 280.045 37.7244L279.186 37.8661C279.186 37.7244 279.045 37.4346 278.331 37.4346C277.617 37.4346 277.472 37.7244 277.472 37.8661C277.472 38.2975 277.902 38.4376 278.186 38.4376L279.045 38.5825C279.475 38.7274 280.33 38.869 280.33 39.8752C280.33 40.7333 279.475 41.1647 278.331 41.1647C277.758 41.1647 277.187 41.0198 276.758 40.7333C276.472 40.5916 276.472 40.3018 276.328 40.1618L277.187 39.8752ZM152.264 47.3306H188.425V42.8841H158.554V28.8314H180.993V24.2433H158.554V11.1951H188.425V6.75026H152.264V47.3306ZM171.132 0.297852L166.271 5.74731L181.566 0.297852H171.132Z" fill="black"/>
<path fill-rule="evenodd" clip-rule="evenodd" d="M249.172 42.8845V6.75069H243.454V47.331H280.044V42.8845H249.172ZM211.865 6.75069L191.286 47.331H198.287L203.575 36.8636H228.159L233.447 47.331H240.307L219.728 6.75069H211.865ZM206.147 31.8439L215.867 12.4867L225.587 31.8439H206.147ZM132.682 30.4095C141.975 27.9722 142.83 21.0883 142.83 18.5077C142.261 11.3389 137.4 6.74908 128.681 6.74908H103.238V47.3294H108.954V30.4095H125.535L137.827 47.3294H145.116C145.117 47.331 136.256 35.859 132.682 30.4095ZM127.821 25.5348H108.956V11.6254H128.539C132.969 11.6254 135.542 13.7762 136.399 16.3569C137.114 18.2195 136.684 20.6585 135.685 22.2345C134.112 24.9617 130.967 25.5348 127.821 25.5348ZM68.3623 0.0117188C51.9249 0.0117188 40.7768 11.4821 40.7768 25.5348C40.7768 40.3023 53.0691 50.7729 68.3623 50.7729C83.5143 50.7729 95.8051 40.4472 95.8051 25.5348C95.8051 11.4821 84.5141 0.0117188 68.3623 0.0117188ZM68.0767 45.7517C56.7841 45.7517 47.3514 36.577 47.3514 25.5348C47.3514 14.6359 56.3556 5.03134 68.5052 5.03134C80.5102 5.03134 89.2304 14.6375 89.2304 25.5348C89.2304 36.577 79.5121 45.7517 68.0767 45.7517ZM26.0549 21.2332H30.3428L37.9188 6.75069H31.7726L26.0549 21.2332ZM5.61687 42.8845V6.75069H0.0419922V47.331H36.4889V42.8845H5.61687Z" fill="black"/>
</g>
<defs>
<clipPath id="clip0_246_197">
<rect width="280" height="71" fill="white"/>
</clipPath>
</defs>
</svg>
