<svg width="280" height="46" viewBox="0 0 280 46" fill="none" xmlns="http://www.w3.org/2000/svg">
<path fill-rule="evenodd" clip-rule="evenodd" d="M260.28 9.93558L260.704 17.538H259.857C259.643 16.0166 259.187 14.815 258.515 13.9317C257.88 13.0469 257.138 12.5169 256.398 12.2702C255.657 12.022 254.632 11.9169 253.291 11.9169H241.685V25.2455H252.233C255.231 25.2455 256.748 23.5505 256.748 20.226H257.632V32.353H256.748C256.748 30.2666 256.362 28.9234 255.549 28.2533C254.774 27.5817 253.608 27.2269 252.023 27.2269H241.685V39.7438C241.685 40.8753 241.896 41.617 242.285 41.9353C242.635 42.2886 243.378 42.4668 244.472 42.4668H253.291C255.62 42.4668 257.42 42.0069 258.653 41.052C259.924 40.1322 259.995 38.364 261.301 35.8177H262.254L260.702 44.4451H231.312V43.5252C232.757 43.5252 233.885 43.3486 234.591 42.9237C235.333 42.5338 235.79 42.0404 235.968 41.4739C236.143 40.8723 236.251 39.6357 236.251 37.7259V16.5831C236.251 14.6033 236.144 13.3302 235.933 12.7652C235.687 12.1636 235.227 11.7052 234.52 11.3869C233.853 11.0336 232.757 10.8554 231.312 10.8204V9.93558H260.28ZM214.696 9.93558H225.138V10.8204C223.656 10.8554 222.565 11.0321 221.822 11.3869C221.115 11.7052 220.658 12.1651 220.445 12.7652C220.234 13.3667 219.953 14.6384 220.127 16.5831L222.068 37.7275C222.246 39.6372 222.563 40.9104 222.775 41.4754C222.949 42.0769 223.41 42.5719 224.116 42.9618C224.855 43.3501 225.986 43.5268 227.504 43.5268V44.4466H211.977V43.5268C213.497 43.5268 214.625 43.3501 215.365 42.9618C216.106 42.5719 216.567 42.0769 216.778 41.5119C216.956 40.9454 216.813 39.6722 216.638 37.729L214.698 15.4882L201.36 44.4466H200.478L188.06 15.4882L185.694 37.729C185.482 39.6722 185.519 40.9119 185.694 41.5119C185.908 42.0769 186.329 42.5369 187.035 42.9267C187.742 43.3151 188.835 43.4917 190.246 43.5283V44.4481H178.142V43.5283C179.627 43.5283 180.755 43.3516 181.496 42.9633C182.235 42.5734 182.695 42.0785 182.87 41.4769C183.084 40.9119 183.223 39.6387 183.437 37.729L185.8 16.7964C185.975 15.3115 185.657 14.18 185.411 13.4718C185.165 12.7636 184.636 12.1986 183.894 11.7387C183.153 11.2788 182.132 10.9605 180.79 10.8189V9.93404H191.338L202.592 36.2761L214.696 9.93558ZM170.417 27.9335C170.417 23.1957 169.357 19.3046 167.312 16.2283C165.266 13.187 162.302 11.6671 158.419 11.6671C154.576 11.6671 151.646 13.1535 149.634 16.1583C147.625 19.128 146.601 23.016 146.601 27.7569C146.601 32.7414 147.696 36.7025 149.883 39.6372C152.07 42.5719 154.962 44.0567 158.562 44.0567C162.09 44.0567 164.949 42.6069 167.137 39.7073C169.287 36.8076 170.417 32.883 170.417 27.9335ZM176.943 27.7569C176.943 30.5499 176.273 33.343 174.898 36.171C173.556 38.9641 171.404 41.2972 168.405 43.1719C165.406 45.0817 162.16 46 158.633 46C153.691 46 149.353 44.2684 145.648 40.7672C141.943 37.266 140.074 32.9531 140.074 27.8254C140.074 22.8759 141.873 18.5965 145.437 15.0252C149.034 11.4189 153.377 9.68581 158.49 9.68581C163.536 9.68581 167.876 11.4189 171.511 14.9186C175.108 18.4579 176.943 22.7342 176.943 27.7569ZM134.252 9.15736L135.063 20.791H134.252C133.617 17.4314 132.135 14.9216 129.807 13.3302C127.442 11.7387 124.938 10.9255 122.256 10.9255C118.516 10.9255 115.411 12.3052 112.977 15.0617C110.577 17.7847 109.342 22.0276 109.342 27.7569C109.342 32.7779 110.682 36.5609 113.329 39.1423C116.012 41.7236 119.221 43.0318 122.997 43.0318C125.784 43.0318 128.219 42.3252 130.336 40.9104C132.488 39.4956 134.041 37.9407 135.063 36.2061L135.805 36.7025C132.488 42.3937 127.584 45.2248 121.197 45.2248C116.116 45.2248 111.813 43.4902 108.248 40.0971C104.721 36.7025 102.955 32.5297 102.955 27.6518C102.955 22.4875 104.79 18.103 108.389 14.5318C112.059 10.9255 116.504 9.15736 121.76 9.15736C124.619 9.15736 127.369 9.79394 130.052 10.9971C130.652 11.2438 131.111 11.3854 131.463 11.3854C132.275 11.3854 132.91 10.6422 133.333 9.15736H134.252ZM102.003 9.93558V10.8204H100.663C98.8988 10.8204 97.7697 11.1037 97.3108 11.6336C96.8169 12.2002 96.5707 13.5434 96.5707 15.6998V44.8365H95.9005L71.2366 17.0431V37.5508C71.2366 39.4956 71.3779 40.8053 71.6956 41.5119C72.0132 42.2186 72.4721 42.7135 73.1423 42.9968C73.8474 43.3151 74.8716 43.4917 76.2469 43.5283V44.4481H63.7919V43.5283C65.4148 43.4933 66.5455 43.3151 67.2855 42.9633C67.9906 42.5734 68.4496 42.0434 68.6973 41.3718C68.9085 40.6637 69.0149 38.9671 69.0149 36.2076V14.815C67.4968 12.1636 65.1687 10.8189 62.0291 10.8189V9.93404H72.0147L94.3475 35.3928V15.9816C94.3475 13.8601 94.1362 12.4819 93.7472 11.8088C93.3232 11.1722 92.3005 10.8189 90.6425 10.8189H89.3372V9.93404H102.003V9.93558ZM43.576 16.8664L38.7769 28.9584H48.4084L43.576 16.8664ZM45.6928 8.41569L58.3941 39.8504C58.9578 41.2652 59.4867 42.2186 60.052 42.7485C60.6173 43.2785 61.5701 43.5268 62.874 43.5268V44.4466H49.7138V43.5268C51.972 43.5268 53.1011 42.7135 53.1011 41.1236C53.1011 40.5921 52.8899 39.8154 52.4659 38.7889L49.15 30.7981H38.0004L34.2256 39.8504C34.0589 40.2906 33.9754 40.7579 33.9794 41.2287C33.9794 42.7836 35.1434 43.5268 37.4366 43.5268V44.4466H28.1576V43.5268C29.0755 43.4217 29.8505 43.0668 30.4507 42.4303C31.051 41.8287 31.7212 40.5571 32.4977 38.6473L44.8464 8.41569H45.6928ZM28.3339 35.2162L25.4405 44.4451H0.00151954V43.5252C1.51965 43.5252 2.68218 43.3486 3.42377 42.9602C4.19879 42.5353 4.65773 42.0754 4.86896 41.4739C5.04524 40.9089 5.15161 39.6692 5.15161 37.7259V16.5831C5.15161 14.6384 5.04524 13.3652 4.83401 12.7652C4.62277 12.1986 4.12889 11.7402 3.3873 11.3869C2.64571 11.0336 1.51813 10.8554 0 10.8204V9.93558H15.4883V10.8204C14.0066 10.8554 12.9125 11.0321 12.2073 11.3869C11.5022 11.7052 11.0433 12.1651 10.8321 12.7652C10.6193 13.3667 10.5145 14.6384 10.5145 16.5831V40.1687C10.5145 40.9454 10.6558 41.4754 10.9384 41.7602C11.256 42.0069 11.9612 42.1485 13.1617 42.1485H17.5368C20.184 42.1485 22.2294 41.6536 23.6062 40.6621C24.9466 39.6372 26.252 37.7275 27.4525 34.8994L28.3339 35.2162ZM144.52 7.14252L157.574 0H159.869L172.359 7.67403L158.563 4.34947L144.52 7.14252ZM279.505 43.7141V44.7025H279.857V40.7429H279.505V41.8378H274.883V40.9896C274.918 38.5148 273.756 37.2767 271.358 37.2767C270.44 37.2767 269.698 37.5234 269.063 38.0183C268.463 38.5833 268.145 39.5382 268.11 40.918V44.6994H268.499V43.711H279.505V43.7141ZM274.494 41.8394H268.499V41.1327C268.499 40.7444 268.568 40.4261 268.639 40.2129C268.721 39.9952 268.869 39.8091 269.063 39.6814C269.452 39.5047 269.944 39.4347 270.58 39.4347H272.695C272.909 39.4697 273.119 39.5047 273.295 39.5397C273.648 39.6448 273.931 39.753 274.108 39.9296C274.261 40.0874 274.37 40.282 274.426 40.4946C274.458 40.7078 274.494 40.9545 274.494 41.2363V41.8394ZM279.505 32.0454V33.0338H279.857V29.2859H279.505V30.0291L267.967 32.8922V33.7054L277.496 36.0751C278.059 36.1817 278.52 36.3233 278.872 36.4985C279.057 36.5719 279.215 36.6985 279.328 36.8623C279.44 37.026 279.502 37.2195 279.505 37.4183H279.857V34.6237H279.505C279.505 34.942 279.436 35.1552 279.365 35.3319C279.253 35.5245 279.079 35.6737 278.872 35.7553C278.638 35.7903 278.4 35.7903 278.166 35.7553C277.531 35.6502 277.213 35.5786 277.248 35.5786L276.47 35.4035V32.8221L279.505 32.0454ZM276.082 32.8602V35.3349L271.178 34.0983L276.082 32.8602ZM279.505 26.3177H273.965V25.3293C273.965 24.976 274.037 24.7278 274.143 24.5496C274.283 24.3379 274.493 24.2313 274.775 24.1612C275.061 24.0561 275.377 24.0196 275.731 23.9846C276.117 23.9846 276.506 23.9495 276.965 23.9495C277.458 23.8795 277.883 23.8445 278.236 23.8094C278.622 23.7378 278.939 23.6663 279.22 23.5612C279.461 23.4687 279.661 23.2932 279.784 23.0662C279.927 22.8546 279.999 22.5363 279.999 22.1464C279.999 21.7931 279.927 21.5098 279.821 21.2966C279.752 21.0849 279.646 20.9433 279.575 20.8367L279.222 20.9783C279.328 21.0849 279.4 21.19 279.4 21.2951C279.4 21.4717 279.257 21.6134 279.047 21.6849C278.872 21.79 278.587 21.8266 278.269 21.8966C277.952 21.8966 277.599 21.9317 277.213 21.9317C276.824 21.9317 276.435 21.9667 276.082 22.0367C275.943 22.0718 275.8 22.0718 275.661 22.1068C275.519 22.1418 275.415 22.1769 275.309 22.2119C275.063 22.3185 274.848 22.4601 274.639 22.6368C274.25 22.9551 274.003 23.5201 273.829 24.3699H273.686C273.368 22.6018 272.452 21.7535 270.864 21.7885C270.229 21.7885 269.771 21.8586 269.382 22.0718C269.03 22.2835 268.747 22.5317 268.569 22.885C268.383 23.2146 268.253 23.5728 268.183 23.945C268.148 24.3348 268.112 24.7247 268.112 25.0765V29.2143H268.501V28.2244H279.506V29.2143H279.859V25.3598H279.506V26.3177H279.505ZM273.576 26.3177H268.498V25.5045C268.498 25.1161 268.566 24.8344 268.673 24.6212C268.815 24.4095 268.99 24.2678 269.165 24.1612C269.379 24.0561 269.589 23.9846 269.8 23.948H271.529C271.987 23.948 272.376 23.983 272.622 24.0546C272.908 24.1597 273.083 24.3013 273.224 24.443C273.364 24.6196 273.47 24.7613 273.507 24.9745C273.538 25.1511 273.575 25.3278 273.575 25.5045L273.576 26.3177ZM268.499 19.3518H279.505V20.3402H279.857V16.4507H279.505V17.4405H268.499V16.4507H268.11V20.3402H268.499V19.3518ZM279.857 15.2506V14.7191C279.682 14.649 279.575 14.5424 279.54 14.4358C279.505 14.2942 279.505 14.1876 279.505 14.1175C279.506 13.9469 279.542 13.7784 279.611 13.6226C279.682 13.4459 279.786 13.2677 279.894 13.056C279.965 12.7378 280 12.4545 280 12.1362C280 11.5697 279.857 11.1098 279.611 10.7214C279.386 10.3614 279.069 10.0685 278.693 9.87314C278.304 9.66145 277.918 9.48479 277.494 9.41321C277.105 9.34315 276.716 9.27157 276.398 9.27157C275.798 9.27157 275.271 9.37666 274.847 9.51829C274.475 9.66039 274.13 9.8637 273.826 10.1198C273.54 10.3315 273.33 10.5447 273.156 10.7214C273.013 10.9331 272.909 11.0747 272.873 11.1813L271.988 12.7027C271.803 13.0334 271.552 13.3222 271.25 13.551C270.932 13.8343 270.472 13.9393 269.802 13.9043C269.238 13.7992 268.849 13.6226 268.638 13.3393C268.449 13.0702 268.35 12.7483 268.355 12.4195C268.355 12.3129 268.39 12.2063 268.39 12.0296C268.461 11.9245 268.53 11.7463 268.636 11.6062C268.775 11.3959 268.955 11.2157 269.165 11.0762C269.472 10.8697 269.804 10.7034 270.153 10.5813C270.577 10.4397 271.002 10.3331 271.458 10.228V9.83963H268.107V10.3696C268.179 10.4062 268.247 10.4412 268.282 10.5112C268.353 10.5813 268.425 10.6529 268.425 10.7229C268.442 10.7556 268.451 10.7919 268.451 10.8288C268.451 10.8657 268.442 10.902 268.425 10.9346C268.358 11.1691 268.263 11.3946 268.142 11.6062C268.036 11.7829 267.999 12.0661 267.964 12.456C267.964 13.021 268.211 13.586 268.706 14.081C268.989 14.3497 269.325 14.5548 269.694 14.6825C270.118 14.8592 270.612 14.9308 271.175 14.9308C271.704 14.9658 272.271 14.8592 272.87 14.6475C273.47 14.4343 273.997 13.9759 274.455 13.2677L275.304 11.8529C275.444 11.5346 275.657 11.2164 276.011 10.8981C276.187 10.7257 276.407 10.6042 276.646 10.5463C276.929 10.4397 277.246 10.4046 277.631 10.4046C278.055 10.4046 278.409 10.4747 278.655 10.5813C278.938 10.7229 279.116 10.8646 279.255 11.0062C279.398 11.1828 279.502 11.3245 279.502 11.4661C279.537 11.6077 279.573 11.7128 279.573 11.7494C279.608 11.891 279.644 12.0326 279.644 12.1743C279.644 12.5626 279.502 12.9159 279.22 13.2342C278.939 13.5525 278.62 13.8008 278.199 14.0475C277.315 14.5059 276.505 14.7907 275.73 14.8957V15.2491L279.857 15.2506Z" fill="black"/>
</svg>
