<svg width="280" height="120" viewBox="0 0 280 120" fill="none" xmlns="http://www.w3.org/2000/svg">
<g clip-path="url(#clip0_246_208)">
<path fill-rule="evenodd" clip-rule="evenodd" d="M3.38853 90.706H14.4936V93.8085H0.03125V69.4995H3.38853V90.706ZM26.3728 74.6714L30.2467 83.4647H22.7564L26.3728 74.6714ZM27.6636 69.4995H25.0804L14.7511 93.8085H18.3659L21.464 86.5672H31.5359L34.8931 93.8085H38.5079L27.6636 69.4995ZM52.1961 72.602H54.5202C57.8774 72.602 59.1682 73.8962 59.1682 76.2234C59.4273 78.2896 58.3924 80.1011 54.5202 80.1011H52.1961V72.602ZM48.8405 69.4995V93.8085H52.1961V83.4647H53.746C55.5534 83.4647 57.1033 83.9804 60.2015 88.8945L63.2996 93.8085H67.431C65.8811 91.4812 65.107 90.706 64.3329 89.154C62.268 86.0515 60.9756 83.7242 58.9091 82.43C61.4906 81.397 62.783 79.3276 62.783 76.4829C62.783 72.0863 59.6848 69.4995 55.0351 69.4995H48.8405ZM70.5341 81.6548C70.5341 76.4829 74.6655 72.602 80.0876 72.602C85.5114 72.602 89.3853 76.4829 89.3853 81.6548C89.3853 87.0845 85.5114 90.9655 80.0876 90.9655C74.6638 90.9639 70.5341 87.0845 70.5341 81.6548ZM67.1752 81.6548C67.1752 88.3787 72.0823 94.068 79.8285 94.068C88.0929 94.068 92.9985 88.3804 92.9985 81.6548C92.9985 74.9292 88.0913 69.2417 80.086 69.2417C72.0823 69.2417 67.1752 74.9292 67.1752 81.6548ZM117.79 74.9292C114.95 73.3772 112.366 72.602 109.527 72.602C104.104 72.602 99.9722 76.4829 99.9722 81.6548C99.9722 87.0845 103.846 90.9655 109.785 90.9655C112.366 90.9655 115.466 89.9292 118.049 88.1209V91.9986C115.725 93.2895 113.142 94.068 109.268 94.068C100.23 94.068 96.3574 87.0845 96.3574 82.1722C96.3574 74.673 101.78 69.2433 109.527 69.2433C112.109 69.2433 114.692 69.759 117.79 71.3127V74.9292ZM142.843 93.8085H139.484V83.2036H125.797V93.8085H122.44V69.4995H125.797V80.1011H139.484V69.4995H142.843V93.8085ZM161.953 72.602H151.878V80.1011H161.694V83.2036H151.878V90.706H162.468V93.8085H148.265V69.4995H161.953V72.602ZM164.792 84.2399H173.314V87.6002H164.792V84.2399ZM181.06 72.602H185.193C188.291 72.602 189.326 74.6714 189.326 76.4829C189.326 78.8102 187.517 80.1011 184.936 80.1011H181.06V72.602ZM177.705 69.4995V93.8085H181.06V83.4647H184.677C190.356 83.4647 192.939 80.359 192.939 76.4813C192.939 72.6003 190.358 69.4979 185.193 69.4979L177.705 69.4995ZM198.362 81.6548C198.362 76.4829 202.495 72.602 207.917 72.602C213.342 72.602 217.214 76.4829 217.214 81.6548C217.214 87.0845 213.342 90.9655 207.917 90.9655C202.495 90.9639 198.362 87.0845 198.362 81.6548ZM194.748 81.6548C194.748 88.3787 199.913 94.068 207.659 94.068C215.925 94.068 220.831 88.3804 220.831 81.6548C220.831 74.9292 215.924 69.2417 207.917 69.2417C199.913 69.2417 194.748 74.9292 194.748 81.6548ZM236.584 74.9292C234.517 72.8598 232.451 72.3441 230.904 72.3441C228.58 72.3441 227.029 73.6383 227.029 75.1887C227.029 79.8433 237.619 79.8433 237.619 87.6019C237.619 91.4829 234.517 94.068 230.645 94.068C228.064 94.068 225.997 93.5523 223.931 91.9986V87.6019C225.74 89.6713 227.806 90.9655 230.388 90.9655C232.969 90.9655 234.26 89.4135 234.26 87.8631C234.26 82.9457 223.931 82.43 223.931 75.7077C223.931 71.8268 226.771 69.2417 231.162 69.2417C232.971 69.2417 234.775 69.7574 236.584 71.0532V74.9292ZM250.53 74.6714L254.405 83.4647H246.917L250.53 74.6714ZM251.822 69.4995H249.237L238.908 93.8085H242.524L245.365 86.5672H255.694L259.053 93.8085H262.409L251.822 69.4995ZM275.836 69.4995H279.969L271.19 81.1375V93.8085H267.574V80.8796L258.533 69.4995H262.926L269.383 78.0317L275.836 69.4995ZM1.83863 115.015H7.0033V116.823H0.03125V102.341H1.83863V115.015ZM13.4604 105.446L15.2677 110.876H11.653L13.4604 105.446ZM13.977 102.341H12.9454L7.78072 116.823H9.5881L11.138 112.688H16.0452L17.5934 116.823H19.1417L13.977 102.341ZM22.7564 104.152H24.3063C25.8562 104.152 26.3728 105.189 26.3728 106.222C26.3728 107.774 25.5971 108.549 23.7897 108.549H22.7564V104.152ZM21.2082 116.823H25.0821C27.9244 116.823 29.2135 114.757 29.2135 112.946C29.2135 111.134 27.9227 109.582 26.3728 109.324V109.066C27.4045 108.551 28.1802 107.514 28.1802 105.964C28.1802 104.152 26.8895 102.342 24.5655 102.342H21.2082V116.823ZM22.7564 110.36H24.8229C26.6303 110.36 27.4045 111.394 27.4045 112.688C27.4045 113.721 26.8878 115.015 24.8229 115.015H22.7564V110.36ZM32.5708 109.582C32.5708 106.479 34.3798 104.152 36.9613 104.152C39.5428 104.152 41.6093 106.479 41.6093 109.582C41.6093 112.946 39.5428 115.273 36.9613 115.273C34.3798 115.273 32.5708 112.946 32.5708 109.582ZM30.7634 109.582C30.7634 113.721 33.0874 117.084 36.9613 117.084C40.8352 117.084 43.1592 113.463 43.1592 109.582C43.1592 105.446 40.8352 102.083 36.9613 102.083C33.3449 102.083 30.7634 105.704 30.7634 109.582ZM48.0648 104.152H49.098C50.6463 104.152 51.422 104.927 51.422 106.222C51.422 107.513 50.9054 108.807 49.098 108.807H48.0648V104.152ZM46.2574 102.341V116.823H48.0648V110.618H48.5797C49.613 110.618 50.1296 110.876 51.6779 113.979L53.2278 116.823H55.2943C54.7311 115.902 54.2144 114.952 53.746 113.979C52.7128 112.167 52.1961 110.876 51.1645 110.101C52.4553 109.322 52.9719 108.032 52.9719 106.479C52.9719 103.894 51.6795 102.341 49.098 102.341H46.2574ZM61.4939 105.446L63.5604 110.876H59.9456L61.4939 105.446ZM62.2696 102.341H60.9789L56.0717 116.823H57.6199L59.1682 112.688H64.0754L65.6253 116.823H67.4326L62.2696 102.341ZM76.7304 104.152H72.8564V116.823H71.0491V104.152H67.1752V102.341H76.7304V104.152ZM79.3135 109.582C79.3135 106.479 81.1209 104.152 83.7024 104.152C86.2856 104.152 88.3521 106.479 88.3521 109.582C88.3521 112.946 86.2856 115.273 83.7024 115.273C81.1209 115.273 79.3135 112.946 79.3135 109.582ZM77.5061 109.582C77.5061 113.721 79.8301 117.084 83.7024 117.084C87.5763 117.084 90.1595 113.463 90.1595 109.582C90.1595 105.446 87.5763 102.083 83.7024 102.083C80.0876 102.083 77.5061 105.704 77.5061 109.582ZM92.741 102.341H94.5484V116.823H92.741V102.341ZM99.198 104.152H100.231C102.039 104.152 102.555 104.927 102.555 106.222C102.555 107.513 102.039 108.807 100.231 108.807H99.198V104.152ZM97.6481 102.341V116.823H99.1964V110.618H99.9705C100.745 110.618 101.52 110.876 103.069 113.979L104.619 116.823H106.685C105.909 115.532 105.393 115.015 104.876 113.979C104.1 112.167 103.584 110.876 102.295 110.101C103.585 109.322 104.359 108.032 104.359 106.479C104.359 103.894 102.81 102.341 100.485 102.341H97.6481ZM115.209 104.152H110.303V108.549H115.209V110.618H110.303V115.015H115.468V116.823H108.752V102.341H115.209V104.152ZM123.731 104.152H125.797C127.345 104.152 127.604 105.446 127.604 106.479C127.604 108.032 126.829 108.807 125.54 108.807H123.731V104.152ZM121.923 102.341V116.823H123.731V110.618H125.54C128.121 110.618 129.414 108.807 129.414 106.479C129.414 104.152 128.123 102.341 125.799 102.341H121.923ZM141.808 116.823H140V110.618H133.545V116.823H131.738V102.341H133.545V108.549H140V102.341H141.808V116.823ZM149.039 105.446L150.848 110.876H147.235L149.039 105.446ZM149.554 102.341H148.522L143.358 116.823H145.167L146.715 112.688H151.622L153.172 116.823H154.981L149.554 102.341ZM158.594 104.152H159.629C161.435 104.152 161.953 104.927 161.953 106.222C161.953 107.513 161.435 108.807 159.629 108.807H158.594V104.152ZM157.046 102.341V116.823H158.594V110.618H159.368C160.146 110.618 160.918 110.876 162.47 113.979L164.02 116.823H165.825C165.051 115.532 164.794 115.015 164.277 113.979C163.5 112.167 162.727 110.876 161.696 110.101C162.985 109.322 163.759 108.032 163.759 106.479C163.759 103.894 162.211 102.341 159.887 102.341H157.046ZM178.739 116.823H177.188V105.446L173.571 111.136H173.314L169.699 105.446V116.823H167.89V102.341H169.442L173.314 108.291L177.188 102.341H178.739V116.823ZM186.228 105.446L188.291 110.876H184.678L186.228 105.446ZM187.002 102.341H185.71L180.803 116.823H182.353L183.902 112.688H188.81L190.358 116.823H192.167L187.002 102.341ZM203.529 105.704C202.237 104.41 200.948 104.152 199.654 104.152C196.813 104.152 195.006 106.479 195.006 109.582C195.006 112.946 196.815 115.273 199.654 115.273C200.946 115.273 202.495 114.757 203.787 113.461V115.789C202.495 116.564 201.205 117.083 199.396 117.083C195.006 117.083 193.197 112.944 193.197 109.838C193.197 105.445 195.782 102.081 199.654 102.081C200.686 102.081 201.978 102.597 203.529 103.375V105.704ZM213.085 104.152H208.179V108.549H212.827V110.618H208.179V115.015H213.342V116.823H206.37V102.341H213.085V104.152ZM225.481 111.136C225.481 114.757 223.671 117.086 220.316 117.086C217.731 117.086 215.409 115.534 215.409 111.395V102.342H217.214V110.878C217.214 112.689 217.214 113.205 217.729 113.98C218.507 114.759 219.279 115.274 220.314 115.274C221.603 115.274 222.638 114.759 223.155 113.98C223.67 113.205 223.929 112.169 223.929 110.878V102.342H225.479V111.136H225.481ZM237.099 104.152H232.969V116.823H231.419V104.152H227.286V102.341H237.099V104.152ZM239.426 102.341H240.975V116.823H239.426V102.341ZM250.272 104.152C252.854 104.152 254.663 106.479 254.663 109.582C254.663 112.688 252.854 115.273 250.272 115.273C247.174 115.273 245.624 112.688 245.624 109.582C245.623 107.513 246.657 104.152 250.272 104.152ZM251.565 117.084C254.405 116.306 256.469 113.203 256.469 109.582C256.469 105.446 253.887 102.083 250.272 102.083C246.397 102.083 243.815 105.189 243.815 109.582C243.815 113.203 245.882 116.306 248.722 117.084C250.272 118.375 252.081 119.67 254.405 119.929L255.954 118.117C254.663 118.375 253.628 118.117 251.565 117.084ZM268.866 111.136C268.866 114.757 267.316 117.086 263.698 117.086C261.374 117.086 258.791 115.534 258.791 111.395V102.342H260.6V110.878C260.6 112.689 260.857 113.205 261.374 113.98C261.892 114.759 262.666 115.274 263.698 115.274C264.99 115.274 266.022 114.759 266.539 113.98C267.057 113.205 267.316 112.169 267.316 110.878V102.342H268.866V111.136ZM278.679 104.152H273.516V108.549H278.418V110.618H273.516V115.015H278.679V116.823H271.964V102.341H278.679V104.152ZM115.725 61.9987H161.433V-0.0654297H115.725V61.9987Z" fill="black"/>
</g>
<defs>
<clipPath id="clip0_246_208">
<rect width="280" height="120" fill="white"/>
</clipPath>
</defs>
</svg>
