<svg width="280" height="86" viewBox="0 0 280 86" fill="none" xmlns="http://www.w3.org/2000/svg">
<path fill-rule="evenodd" clip-rule="evenodd" d="M0 1.91124H11.0945L32.1325 48.9252L52.4057 1.91124H61.9676L34.8099 60.7755H27.924L0 1.91124ZM71.9127 60.7755H81.4761V1.91124H71.9127V60.7755ZM211.146 61.1553H201.584V34.3994H167.922V61.1553H157.979V2.29409H167.922V27.1373H201.584V2.29409H211.146V61.1553ZM219.179 1.5284H231.038L250.927 29.4314L269.672 1.91124H280L255.901 37.0763V60.7755H245.572V37.0763L219.179 1.5284ZM147.651 9.55622V2.29409C141.913 0.765689 135.41 0 130.438 0C114.755 0 99.4535 6.49793 92.9522 21.0222C89.1268 28.6672 90.6564 40.1331 95.6297 47.3968C108.252 63.4494 131.203 63.8323 149.563 58.8612V51.982C148.797 51.982 148.797 51.9819 148.414 52.3648C135.028 56.95 119.727 59.2441 106.721 45.4825C101.749 39.3674 100.218 30.5769 102.513 22.9319C106.721 11.466 117.048 5.35089 129.67 6.49644C129.672 6.49793 138.469 6.11508 147.651 9.55622ZM28.6887 84.8544H31.7493V86H27.1592V74.1527H28.6887V84.8544ZM51.2578 81.4133H47.4324L49.3451 76.4453L51.2578 81.4133ZM52.0226 82.5619L53.1705 86H54.7L49.3451 73.387L43.9902 86H45.5198L46.6677 82.5619H52.0226ZM69.2352 80.2663H70.3831C71.9127 80.2663 73.4437 80.6491 73.4437 82.5619C73.4437 84.4716 71.9142 84.8544 70.7663 84.8544H69.2367L69.2352 80.2663ZM68.0888 86H70.7663C73.0606 86 74.9733 84.8545 74.9733 82.5619C74.9733 81.032 74.2085 79.8864 72.6775 79.5036C73.4437 79.1207 73.8254 78.355 73.8254 77.208C73.8254 74.9154 71.9127 74.1527 70 74.1527H68.0873L68.0888 86ZM69.2352 75.2982H69.6169C71.5295 75.2982 72.676 75.2982 72.676 77.208C72.676 79.1207 71.1464 79.1207 69.6169 79.1207H69.2352V75.2982ZM94.4802 74.9154C97.1577 74.9154 99.0704 77.208 99.0704 79.8864C99.0704 82.5619 97.1577 84.8544 94.4802 84.8544C91.8028 84.8544 89.5085 82.5619 89.5085 79.8864C89.5085 77.208 91.4211 74.9154 94.4802 74.9154ZM94.4802 73.7698C91.038 73.7698 87.9774 76.4453 87.9774 79.8864C87.9774 83.3246 91.038 86 94.4802 86C97.5408 86 100.601 83.3246 100.601 79.8864C100.601 76.4453 97.5408 73.7698 94.4802 73.7698ZM113.99 75.2982H114.372C115.901 75.2982 117.431 75.2982 117.431 77.5908C117.431 79.1207 115.901 79.5036 114.372 79.5036H113.99V75.2982ZM113.99 80.6491H114.372L117.814 86H119.344L115.518 80.6491C117.431 80.2663 118.579 79.1222 118.579 77.208C118.579 74.5355 116.666 74.1527 114.37 74.1527H112.458V86H113.987V80.6491H113.99ZM138.087 81.4133H133.879L136.175 76.4453L138.087 81.4133ZM138.469 82.5619L139.999 86H141.53L136.175 73.387L130.438 86H131.968L133.497 82.5619H138.469ZM155.683 86H154.152V75.2982H151.475V74.1527H158.361V75.2982H155.683V86ZM175.193 74.9154C177.871 74.9154 180.165 77.208 180.165 79.8864C180.165 82.5619 177.871 84.8544 175.193 84.8544C172.516 84.8544 170.601 82.5619 170.601 79.8864C170.6 77.208 172.516 74.9154 175.193 74.9154ZM175.193 73.7698C171.749 73.7698 169.072 76.4453 169.072 79.8864C169.072 83.3246 171.749 86 175.193 86C178.634 86 181.694 83.3246 181.694 79.8864C181.693 76.4453 178.632 73.7698 175.193 73.7698ZM194.699 74.1527H196.23V86H194.699V74.1527ZM211.913 75.2982H212.296C214.207 75.2982 215.356 75.2982 215.356 77.5908C215.356 79.1207 213.825 79.5036 212.679 79.5036H211.913V75.2982ZM211.913 80.6491H212.296L216.12 86H217.651L213.824 80.6491C215.738 80.2663 216.884 79.1222 216.884 77.208C216.884 74.5355 214.59 74.1527 212.296 74.1527H210.765V86H211.914V80.6491H211.913ZM230.655 74.1527H237.159V75.2982H232.184V78.7379H236.776V79.8864H232.184V84.8544H237.159V86H230.655V74.1527ZM254.753 76.4453C253.987 75.6796 253.607 74.9154 252.459 74.9154C251.311 74.9154 250.548 75.6811 250.548 76.8281C250.548 77.9737 251.694 78.355 252.459 78.7379L253.225 79.1207C254.753 79.8864 255.903 80.6476 255.903 82.5619C255.903 84.4716 254.372 86 252.459 86C250.546 86 249.015 84.8544 248.632 82.9417L249.782 82.5619C250.165 84.0888 250.928 84.8544 252.459 84.8544C253.609 84.8544 254.753 84.0888 254.753 82.5619C254.753 81.032 253.607 80.6491 252.459 80.2663L251.693 79.8864C250.546 79.1207 249.399 78.7379 249.399 76.8281C249.399 74.9154 250.927 73.7698 252.459 73.7698C253.987 73.7698 255.137 74.5355 255.52 75.6796L254.753 76.4453Z" fill="black"/>
</svg>
