<svg width="280" height="120" viewBox="0 0 280 120" fill="none" xmlns="http://www.w3.org/2000/svg">
<path d="M142.96 98.6185L143.089 98.6358C145.461 98.9577 148.196 99.121 151.219 99.121C167.334 99.1204 187.056 94.5153 187.252 94.4684L187.457 94.4198H194.335L190.755 89.7627L190.651 89.4691C189.138 85.1816 185.299 77.5241 185.259 77.4475L185.169 77.2387C179.475 61.6055 162.216 37.5899 162.042 37.3493L161.97 37.2405L141.181 3.84971H134.039L83.6529 92.9097L87.3383 99.1094L142.96 98.6185ZM85.2569 102.978L79.3047 92.9584L131.898 0H143.219L165.077 35.1049C166.22 36.6949 182.792 59.8645 188.624 75.7777C189.101 76.7309 192.484 83.5366 194.052 87.8557L202.059 98.2695H187.875C185.591 98.7985 167.041 102.97 151.219 102.971C148.089 102.971 145.235 102.802 142.733 102.47L85.2569 102.978Z" fill="#252222"/>
<path d="M129.632 28.7989C129.632 28.7989 128.06 29.4995 128.244 31.1251C128.244 31.1251 128.546 32.8343 130.877 31.6275C130.877 31.6275 135.052 29.3426 138.696 29.73C138.696 29.73 142.534 29.8489 143.242 33.0643C143.242 33.0643 143.776 36.2904 138.735 37.7975C138.735 37.7975 133.209 38.3378 132.72 39.8518C132.72 39.8518 131.858 42.5689 135.239 41.9446C135.239 41.9446 140.248 40.1516 144.53 41.7142C144.53 41.7142 148.781 42.8372 146.443 47.8391C146.443 47.8391 145.575 51.7211 138.208 51.836H132.61C132.61 51.836 130.05 51.6829 130.466 54.0476C130.466 54.0476 130.765 55.2127 134.227 55.0905C134.227 55.0905 139.601 55.1323 142.42 54.3575C142.42 54.3575 148.473 53.1926 149.564 47.3333C149.564 47.3333 150.959 43.4964 147.121 40.2387C147.121 40.2387 144.152 38.8089 142.68 38.6171C142.68 38.6171 146.705 35.8164 145.279 31.5156C145.279 31.5156 144.489 27.2117 137.416 26.7021C137.416 26.7021 133.209 26.744 129.632 28.7989Z" fill="#252222"/>
<path d="M129.899 62.9278C129.899 62.9278 128.472 62.3452 125.874 62.9278C125.874 62.9278 121.021 64.5993 118.618 66.96C118.618 66.96 113.015 70.2418 114.931 76.1921C114.931 76.1921 116.689 81.3787 123.321 83.1369C123.321 83.1369 126.215 83.7573 128.771 83.4821C128.771 83.4821 131.255 83.2167 131.028 85.2678C131.028 85.2678 130.839 86.9 128.356 86.7008C128.356 86.7008 123.359 86.8576 120.799 85.5747C120.799 85.5747 115.159 83.0945 113.278 80.151C113.278 80.151 108.463 73.479 114.069 66.8479C114.069 66.8479 119.109 61.3789 125.05 60.6777C125.05 60.6777 128.424 60.4102 130.534 62.0247C130.534 62.0247 131.181 62.9664 129.899 62.9278Z" fill="#252222"/>
<path d="M147.87 62.9291V70.5328C147.87 70.5328 156.146 70.027 156.711 70.027L163.664 69.87C163.664 69.87 165.059 70.2982 165.092 71.3868C165.092 71.3868 165.355 72.8174 163.548 73.1313L147.87 73.6885L147.688 82.6285C147.688 82.6285 166.782 83.9951 167.277 84.0928C167.277 84.0928 167.988 84.7669 167.277 85.1184C167.277 85.1184 155.543 86.1191 153.132 86.0085L146.106 85.8478C146.106 85.8478 144.34 85.8093 144.561 83.371L144.824 73.6885C144.824 73.6885 143.921 73.2497 144.077 71.8511C144.077 71.8511 144.152 71.3868 144.793 70.9196V61.5306C144.793 61.5306 144.943 59.9085 146.258 59.79H162.052C162.052 59.79 163.815 60.2155 163.286 62.1547C163.286 62.1547 162.767 63.0474 161.336 63.0089L147.87 62.9291Z" fill="#252222"/>
<path d="M94.2036 118.78C92.4469 118.78 91.1811 118.357 90.0654 117.187L91.248 115.984C92.1031 116.865 93.0388 117.136 94.2391 117.136C95.7653 117.136 96.6532 116.459 96.6532 115.289C96.6532 114.764 96.5059 114.323 96.1922 114.035C95.8962 113.747 95.6016 113.628 94.9115 113.527L93.5312 113.323C92.5792 113.188 91.8222 112.849 91.3134 112.357C90.7379 111.798 90.4596 111.035 90.4596 110.052C90.4596 107.951 91.9367 106.511 94.37 106.511C95.914 106.511 96.9983 106.918 97.9994 107.883L96.8674 109.036C96.1431 108.324 95.3057 108.103 94.3209 108.103C92.9406 108.103 92.185 108.917 92.185 109.985C92.185 110.426 92.3159 110.815 92.6283 111.103C92.9229 111.374 93.3989 111.578 93.9417 111.662L95.2729 111.866C96.3586 112.035 96.9656 112.307 97.458 112.764C98.099 113.34 98.41 114.204 98.41 115.238C98.41 117.458 96.6532 118.78 94.2036 118.78Z" fill="#332D2B"/>
<path d="M104.754 108.257V118.679H102.979V108.257H99.7598V106.612H107.973V108.257H104.754Z" fill="#332D2B"/>
<path d="M113.824 113.712V118.678H112.049V113.712L108.551 106.611H110.49L112.937 111.916L115.385 106.611H117.325L113.824 113.712Z" fill="#332D2B"/>
<path d="M118.934 118.679V106.612H120.708V117.035H126.344V118.679H118.934Z" fill="#332D2B"/>
<path d="M128.365 118.679V106.612H135.842V108.257H130.14V111.782H135.004V113.409H130.14V117.035H135.842V118.679H128.365Z" fill="#332D2B"/>
<path d="M145.454 118.679L140.049 110.188V118.679H138.274V106.612H139.902L145.307 115.086V106.612H147.081V118.679H145.454Z" fill="#332D2B"/>
<path d="M153.785 109.341L151.961 114.696H155.56L153.785 109.341ZM156.857 118.679L156.052 116.255H151.436L150.632 118.679H148.741L153.029 106.612H154.459L158.747 118.679H156.857Z" fill="#332D2B"/>
<path d="M167.588 118.679L162.182 110.188V118.679H160.407V106.612H162.034L167.441 115.086V106.612H169.216V118.679H167.588Z" fill="#332D2B"/>
<path d="M178.186 109.07C177.694 108.511 177.038 108.257 176.199 108.257H174.047V117.035H176.199C177.038 117.035 177.694 116.781 178.186 116.221C178.795 115.526 178.811 114.222 178.811 112.561C178.811 110.9 178.795 109.764 178.186 109.07ZM179.403 117.543C178.663 118.306 177.596 118.679 176.379 118.679H172.272V106.612H176.379C177.596 106.612 178.663 106.985 179.403 107.748C180.667 109.053 180.586 110.815 180.586 112.561C180.586 114.306 180.667 116.238 179.403 117.543Z" fill="#332D2B"/>
<path d="M186.698 109.341L184.875 114.696H188.473L186.698 109.341ZM189.77 118.679L188.965 116.255H184.348L183.542 118.679H181.654L185.943 106.612H187.371L191.66 118.679H189.77Z" fill="#332D2B"/>
</svg>
