<svg width="33" height="32" viewBox="0 0 33 32" fill="none" xmlns="http://www.w3.org/2000/svg">
<g clip-path="url(#clip0_296_90)">
<path d="M16.5 32C25.3366 32 32.5 24.8366 32.5 16C32.5 7.16344 25.3366 0 16.5 0C7.66344 0 0.5 7.16344 0.5 16C0.5 24.8366 7.66344 32 16.5 32Z" fill="#3C5A9A"/>
<path d="M21.7028 4.91113H18.1584C16.0551 4.91113 13.7155 5.79578 13.7155 8.84469C13.7258 9.90704 13.7155 10.9245 13.7155 12.0695H11.2822V15.9416H13.7908V27.0888H18.4005V15.8681H21.4431L21.7184 12.0586H18.3211C18.3211 12.0586 18.3287 10.3641 18.3211 9.87195C18.3211 8.66709 19.5748 8.73608 19.6502 8.73608C20.2468 8.73608 21.4068 8.73782 21.7046 8.73608V4.91113H21.7028Z" fill="white"/>
</g>
<defs>
<clipPath id="clip0_296_90">
<rect width="32" height="32" fill="white" transform="translate(0.5)"/>
</clipPath>
</defs>
</svg>
