<svg width="33" height="32" viewBox="0 0 33 32" fill="none" xmlns="http://www.w3.org/2000/svg">
<g clip-path="url(#clip0_296_87)">
<path d="M10.9185 16C10.9185 13.0546 13.3056 10.6662 16.251 10.6662C19.1964 10.6662 21.5847 13.0546 21.5847 16C21.5847 18.9454 19.1964 21.3338 16.251 21.3338C13.3056 21.3338 10.9185 18.9454 10.9185 16ZM8.03517 16C8.03517 20.5376 11.7134 24.2158 16.251 24.2158C20.7886 24.2158 24.4668 20.5376 24.4668 16C24.4668 11.4624 20.7886 7.78419 16.251 7.78419C11.7134 7.78419 8.03517 11.4624 8.03517 16ZM22.872 7.45843C22.8719 7.83817 22.9843 8.20943 23.1952 8.52526C23.406 8.84108 23.7058 9.08729 24.0566 9.23275C24.4073 9.37822 24.7934 9.41639 25.1659 9.34246C25.5383 9.26852 25.8805 9.0858 26.1491 8.81739C26.4178 8.54898 26.6008 8.20694 26.675 7.83453C26.7492 7.46211 26.7114 7.07605 26.5662 6.72516C26.421 6.37426 26.175 6.0743 25.8594 5.8632C25.5437 5.65211 25.1725 5.53935 24.7928 5.5392H24.792C24.283 5.53944 23.7949 5.74169 23.4349 6.10155C23.0749 6.4614 22.8725 6.94942 22.872 7.45843ZM9.78698 29.0236C8.22704 28.9526 7.37917 28.6927 6.81571 28.4732C6.0687 28.1824 5.53571 27.836 4.97533 27.2764C4.41494 26.7168 4.06806 26.1843 3.77853 25.4373C3.55888 24.8741 3.29904 24.026 3.22813 22.466C3.15056 20.7795 3.13507 20.2729 3.13507 16.0001C3.13507 11.7274 3.15184 11.2221 3.22813 9.53421C3.29917 7.97427 3.56093 7.12781 3.77853 6.56294C4.06934 5.81594 4.41571 5.28294 4.97533 4.72256C5.53494 4.16218 6.06742 3.8153 6.81571 3.52576C7.37891 3.30611 8.22704 3.04627 9.78698 2.97536C11.4735 2.89779 11.9801 2.8823 16.251 2.8823C20.5218 2.8823 21.029 2.89907 22.7169 2.97536C24.2768 3.0464 25.1233 3.30816 25.6882 3.52576C26.4352 3.8153 26.9682 4.16294 27.5285 4.72256C28.0889 5.28218 28.4345 5.81594 28.7253 6.56294C28.945 7.12614 29.2048 7.97427 29.2757 9.53421C29.3533 11.2221 29.3688 11.7274 29.3688 16.0001C29.3688 20.2729 29.3533 20.7781 29.2757 22.466C29.2047 24.026 28.9436 24.8739 28.7253 25.4373C28.4345 26.1843 28.0882 26.7173 27.5285 27.2764C26.9689 27.8355 26.4352 28.1824 25.6882 28.4732C25.125 28.6929 24.2768 28.9527 22.7169 29.0236C21.0304 29.1012 20.5237 29.1167 16.251 29.1167C11.9782 29.1167 11.473 29.1012 9.78698 29.0236ZM9.6545 0.096896C7.9512 0.174464 6.7873 0.444544 5.77085 0.840064C4.71818 1.24851 3.82704 1.79648 2.93654 2.68557C2.04605 3.57466 1.49949 4.4672 1.09104 5.51987C0.695521 6.53696 0.425441 7.70022 0.347873 9.40352C0.269025 11.1095 0.250977 11.6549 0.250977 16C0.250977 20.3451 0.269025 20.8905 0.347873 22.5965C0.425441 24.2999 0.695521 25.463 1.09104 26.4801C1.49949 27.5322 2.04618 28.4257 2.93654 29.3144C3.82691 30.2031 4.71818 30.7503 5.77085 31.1599C6.78922 31.5555 7.9512 31.8255 9.6545 31.9031C11.3614 31.9807 11.9059 32 16.251 32C20.5961 32 21.1415 31.982 22.8475 31.9031C24.5509 31.8255 25.714 31.5555 26.7311 31.1599C27.7831 30.7503 28.6749 30.2035 29.5654 29.3144C30.4559 28.4253 31.0013 27.5322 31.4109 26.4801C31.8064 25.463 32.0778 24.2998 32.1541 22.5965C32.2316 20.8892 32.2497 20.3451 32.2497 16C32.2497 11.6549 32.2316 11.1095 32.1541 9.40352C32.0765 7.7001 31.8064 6.53632 31.4109 5.51987C31.0013 4.46784 30.4545 3.57606 29.5654 2.68557C28.6763 1.79507 27.7831 1.24851 26.7324 0.840064C25.714 0.444544 24.5508 0.173184 22.8487 0.096896C21.1428 0.019328 20.5973 0 16.2523 0C11.9072 0 11.3614 0.018048 9.6545 0.096896Z" fill="url(#paint0_radial_296_87)"/>
<path d="M10.9185 16C10.9185 13.0546 13.3056 10.6662 16.251 10.6662C19.1964 10.6662 21.5847 13.0546 21.5847 16C21.5847 18.9454 19.1964 21.3338 16.251 21.3338C13.3056 21.3338 10.9185 18.9454 10.9185 16ZM8.03517 16C8.03517 20.5376 11.7134 24.2158 16.251 24.2158C20.7886 24.2158 24.4668 20.5376 24.4668 16C24.4668 11.4624 20.7886 7.78419 16.251 7.78419C11.7134 7.78419 8.03517 11.4624 8.03517 16ZM22.872 7.45843C22.8719 7.83817 22.9843 8.20943 23.1952 8.52526C23.406 8.84108 23.7058 9.08729 24.0566 9.23275C24.4073 9.37822 24.7934 9.41639 25.1659 9.34246C25.5383 9.26852 25.8805 9.0858 26.1491 8.81739C26.4178 8.54898 26.6008 8.20694 26.675 7.83453C26.7492 7.46211 26.7114 7.07605 26.5662 6.72516C26.421 6.37426 26.175 6.0743 25.8594 5.8632C25.5437 5.65211 25.1725 5.53935 24.7928 5.5392H24.792C24.283 5.53944 23.7949 5.74169 23.4349 6.10155C23.0749 6.4614 22.8725 6.94942 22.872 7.45843ZM9.78698 29.0236C8.22704 28.9526 7.37917 28.6927 6.81571 28.4732C6.0687 28.1824 5.53571 27.836 4.97533 27.2764C4.41494 26.7168 4.06806 26.1843 3.77853 25.4373C3.55888 24.8741 3.29904 24.026 3.22813 22.466C3.15056 20.7795 3.13507 20.2729 3.13507 16.0001C3.13507 11.7274 3.15184 11.2221 3.22813 9.53421C3.29917 7.97427 3.56093 7.12781 3.77853 6.56294C4.06934 5.81594 4.41571 5.28294 4.97533 4.72256C5.53494 4.16218 6.06742 3.8153 6.81571 3.52576C7.37891 3.30611 8.22704 3.04627 9.78698 2.97536C11.4735 2.89779 11.9801 2.8823 16.251 2.8823C20.5218 2.8823 21.029 2.89907 22.7169 2.97536C24.2768 3.0464 25.1233 3.30816 25.6882 3.52576C26.4352 3.8153 26.9682 4.16294 27.5285 4.72256C28.0889 5.28218 28.4345 5.81594 28.7253 6.56294C28.945 7.12614 29.2048 7.97427 29.2757 9.53421C29.3533 11.2221 29.3688 11.7274 29.3688 16.0001C29.3688 20.2729 29.3533 20.7781 29.2757 22.466C29.2047 24.026 28.9436 24.8739 28.7253 25.4373C28.4345 26.1843 28.0882 26.7173 27.5285 27.2764C26.9689 27.8355 26.4352 28.1824 25.6882 28.4732C25.125 28.6929 24.2768 28.9527 22.7169 29.0236C21.0304 29.1012 20.5237 29.1167 16.251 29.1167C11.9782 29.1167 11.473 29.1012 9.78698 29.0236ZM9.6545 0.096896C7.9512 0.174464 6.7873 0.444544 5.77085 0.840064C4.71818 1.24851 3.82704 1.79648 2.93654 2.68557C2.04605 3.57466 1.49949 4.4672 1.09104 5.51987C0.695521 6.53696 0.425441 7.70022 0.347873 9.40352C0.269025 11.1095 0.250977 11.6549 0.250977 16C0.250977 20.3451 0.269025 20.8905 0.347873 22.5965C0.425441 24.2999 0.695521 25.463 1.09104 26.4801C1.49949 27.5322 2.04618 28.4257 2.93654 29.3144C3.82691 30.2031 4.71818 30.7503 5.77085 31.1599C6.78922 31.5555 7.9512 31.8255 9.6545 31.9031C11.3614 31.9807 11.9059 32 16.251 32C20.5961 32 21.1415 31.982 22.8475 31.9031C24.5509 31.8255 25.714 31.5555 26.7311 31.1599C27.7831 30.7503 28.6749 30.2035 29.5654 29.3144C30.4559 28.4253 31.0013 27.5322 31.4109 26.4801C31.8064 25.463 32.0778 24.2998 32.1541 22.5965C32.2316 20.8892 32.2497 20.3451 32.2497 16C32.2497 11.6549 32.2316 11.1095 32.1541 9.40352C32.0765 7.7001 31.8064 6.53632 31.4109 5.51987C31.0013 4.46784 30.4545 3.57606 29.5654 2.68557C28.6763 1.79507 27.7831 1.24851 26.7324 0.840064C25.714 0.444544 24.5508 0.173184 22.8487 0.096896C21.1428 0.019328 20.5973 0 16.2523 0C11.9072 0 11.3614 0.018048 9.6545 0.096896Z" fill="url(#paint1_radial_296_87)"/>
</g>
<defs>
<radialGradient id="paint0_radial_296_87" cx="0" cy="0" r="1" gradientUnits="userSpaceOnUse" gradientTransform="translate(4.50237 32.1512) scale(41.7733 41.7733)">
<stop offset="0.09" stop-color="#FA8F21"/>
<stop offset="0.78" stop-color="#D82D7E"/>
</radialGradient>
<radialGradient id="paint1_radial_296_87" cx="0" cy="0" r="1" gradientUnits="userSpaceOnUse" gradientTransform="translate(19.6576 33.5848) scale(32.9231)">
<stop offset="0.64" stop-color="#8C3AAA" stop-opacity="0"/>
<stop offset="1" stop-color="#8C3AAA"/>
</radialGradient>
<clipPath id="clip0_296_87">
<rect width="32" height="32" fill="white" transform="translate(0.25)"/>
</clipPath>
</defs>
</svg>
