<svg width="49" height="32" viewBox="0 0 49 32" fill="none" xmlns="http://www.w3.org/2000/svg">
<path d="M19.0894 32.0002C32.5229 32.0002 39.8692 20.9816 39.8692 11.4267C39.8692 11.1137 39.8627 10.8023 39.8485 10.492C41.2779 9.46801 42.5115 8.20009 43.4915 6.74772C42.1829 7.32373 40.7747 7.71141 39.2975 7.8862C40.8053 6.99104 41.9629 5.57487 42.5091 3.88681C41.0754 4.72883 39.507 5.32241 37.8715 5.64197C36.5388 4.23647 34.6414 3.35742 32.5405 3.35742C28.5073 3.35742 25.2367 6.59563 25.2367 10.5872C25.2367 11.1547 25.3009 11.7065 25.4262 12.236C19.3563 11.9336 13.9739 9.05626 10.3717 4.68115C9.72292 5.78464 9.38167 7.03877 9.3828 8.31549C9.3828 10.8242 10.6721 13.0387 12.6328 14.3344C11.473 14.2993 10.3387 13.9892 9.32521 13.43C9.32413 13.4604 9.32413 13.4899 9.32413 13.5224C9.32413 17.0242 11.8415 19.948 15.1833 20.6105C14.5557 20.7797 13.908 20.8653 13.2575 20.8649C12.7877 20.8649 12.3299 20.8191 11.8849 20.7346C12.8147 23.6076 15.5108 25.6983 18.7074 25.7567C16.2077 27.6965 13.0589 28.8519 9.63661 28.8519C9.05444 28.8523 8.47273 28.8189 7.89453 28.7517C11.1268 30.8029 14.9647 31.9997 19.0898 31.9997" fill="#1DA1F2"/>
</svg>
