<svg width="45" height="32" viewBox="0 0 45 32" fill="none" xmlns="http://www.w3.org/2000/svg">
<path d="M18.692 31.8763C10.1456 31.717 7.22656 31.5737 5.43235 31.1995C4.21846 30.9508 3.16358 30.3987 2.39011 29.5979C1.79232 28.9919 1.31692 28.0672 0.94809 26.7843C0.63171 25.7155 0.508488 24.8263 0.332814 22.6541C0.0638918 17.7518 -0.000216663 13.7438 0.332814 9.26542C0.607565 6.79234 0.740777 3.85651 2.56579 2.14373C3.42751 1.34213 4.42993 0.826272 5.55558 0.613018C7.31398 0.275013 14.8055 0.0078125 22.561 0.0078125C30.299 0.0078125 37.8071 0.275013 39.5672 0.613018C40.9734 0.880218 42.2922 1.68098 43.0665 2.71353C44.7317 5.36531 44.7608 8.66275 44.9298 11.242C44.9998 12.471 44.9998 19.4494 44.9298 20.6783C44.6668 24.7546 44.4553 26.1968 43.8575 27.6921C43.4878 28.6362 43.1723 29.1343 42.6261 29.6864C41.7695 30.5361 40.6775 31.1012 39.4956 31.3065C32.0998 31.8696 25.8197 31.9918 18.692 31.8763ZM30.0175 15.497C25.9029 13.2709 21.9632 11.2066 17.936 9.06987V21.8533C22.1738 19.521 26.6414 17.3843 30.035 15.4793L30.0175 15.497Z" fill="#CD201F"/>
</svg>
